<?xml version="1.0" standalone="no"?>
<!DOCTYPE svg PUBLIC "-//W3C//DTD SVG 20010904//EN"
 "http://www.w3.org/TR/2001/REC-SVG-20010904/DTD/svg10.dtd">
<svg version="1.0" xmlns="http://www.w3.org/2000/svg"
 width="412.000000pt" height="550.000000pt" viewBox="0 0 412.000000 550.000000"
 preserveAspectRatio="xMidYMid meet">

<g transform="translate(0.000000,550.000000) scale(0.100000,-0.100000)"
fill="#000000" stroke="none">
<path d="M1416 4641 c-20 -22 -18 -56 3 -56 8 0 18 13 22 29 5 16 14 33 21 37
9 6 7 9 -8 9 -11 0 -29 -9 -38 -19z"/>
<path d="M2548 4644 c-3 -5 -5 -20 -3 -34 2 -30 35 -42 35 -13 0 23 -25 59
-32 47z"/>
<path d="M1469 4627 c-9 -7 -18 -21 -21 -32 -3 -15 -11 -20 -36 -19 -31 2 -42
-9 -23 -20 12 -8 13 -146 2 -213 -5 -36 -4 -54 3 -58 8 -3 7 -7 -2 -11 -6 -3
-9 -10 -6 -16 8 -12 7 -205 -2 -487 -6 -183 -6 -195 12 -208 18 -13 18 -15 1
-24 -16 -9 -67 -81 -67 -94 0 -15 52 -1 99 28 45 27 56 39 67 75 13 47 41 77
92 98 17 8 32 17 32 20 0 3 -8 3 -17 -1 -34 -14 -87 -24 -97 -18 -9 6 3 10
173 57 91 25 193 36 146 16 -15 -7 -16 -9 -4 -9 9 -1 22 6 29 14 15 18 47 20
53 3 3 -10 7 -10 20 1 9 7 24 11 32 7 8 -3 15 -2 15 3 0 13 69 19 74 6 2 -6
11 -5 26 3 17 10 40 12 94 6 39 -4 61 -10 49 -12 -13 -2 -23 -7 -23 -12 0 -4
45 -8 100 -9 86 -2 200 -22 200 -36 0 -3 -25 -2 -55 1 -42 5 -55 4 -55 -6 0
-12 33 -61 62 -92 7 -7 26 -31 42 -53 17 -22 32 -42 35 -45 4 -3 11 -14 17
-25 14 -25 63 -54 112 -67 51 -13 113 -15 120 -4 6 10 16 389 12 486 -4 115
-5 172 -2 301 2 125 2 126 28 138 15 6 24 15 20 18 -4 4 4 13 16 21 13 8 16
11 5 8 -14 -5 -16 -2 -8 12 6 11 4 36 -5 72 -8 30 -14 65 -14 78 0 54 -87 89
-138 56 -13 -9 -30 -13 -38 -10 -12 5 -13 -3 -9 -38 4 -27 2 -47 -4 -51 -7 -4
-11 5 -11 24 0 53 -8 62 -50 55 -37 -6 -38 -5 -44 30 -12 62 -31 42 -38 -39
l-3 -30 -370 2 c-208 1 -398 7 -435 13 -36 6 -81 10 -102 10 -33 -1 -37 2 -43
30 -6 29 -29 60 -43 60 -4 0 -14 -6 -23 -13z m1088 -139 c-3 -8 -6 -5 -6 6 -1
11 2 17 5 13 3 -3 4 -12 1 -19z m243 -89 c0 -15 -7 -32 -15 -39 -13 -11 -15
-6 -15 32 0 25 3 48 7 51 10 11 23 -14 23 -44z m-260 -25 c6 -14 10 -99 10
-190 0 -132 -3 -164 -14 -164 -21 0 -36 100 -36 247 0 112 2 133 15 133 9 0
20 -12 25 -26z m-1000 -222 c0 -124 -3 -162 -15 -178 -13 -17 -14 -6 -15 106
0 69 3 149 6 178 13 101 24 50 24 -106z m540 -2 c0 -5 -7 -10 -15 -10 -8 0
-15 5 -15 10 0 6 7 10 15 10 8 0 15 -4 15 -10z m37 4 c-3 -3 -12 -4 -19 -1 -8
3 -5 6 6 6 11 1 17 -2 13 -5z m-2 -114 c-3 -5 -13 -10 -21 -10 -8 0 -14 -4
-14 -10 0 -5 5 -10 11 -10 13 0 61 -52 54 -58 -2 -2 -19 2 -39 9 -29 10 -40
10 -60 0 -13 -7 -29 -10 -36 -6 -8 5 -4 11 12 19 12 6 23 17 23 23 0 6 3 15 7
19 4 4 3 13 -3 21 -9 10 -3 13 30 13 26 0 40 -4 36 -10z m-118 -206 c-3 -3
-12 -4 -19 -1 -8 3 -5 6 6 6 11 1 17 -2 13 -5z m188 -3 c-18 -7 -55 -4 -55 5
0 2 17 4 38 3 28 0 32 -2 17 -8z m359 -293 c8 -31 7 -38 -3 -38 -5 0 -11 8
-15 18 -3 9 -9 23 -12 30 -3 6 1 12 9 12 8 0 17 -10 21 -22z"/>
<path d="M2810 3860 c12 -22 35 -26 46 -9 8 13 -13 29 -39 29 -15 0 -16 -3 -7
-20z"/>
<path d="M1741 3703 c-19 -4 -21 -7 -10 -15 10 -6 2 -8 -26 -3 -31 4 -37 3
-25 -5 12 -9 9 -10 -12 -6 -15 3 -29 2 -32 -3 -7 -11 46 -22 59 -11 6 4 23 10
39 14 16 4 39 14 50 22 20 14 20 14 1 13 -11 -1 -31 -4 -44 -6z"/>
<path d="M2878 3106 c-16 -5 -28 -15 -28 -21 0 -7 -11 -17 -25 -23 -15 -7 -22
-17 -19 -25 3 -8 -2 -17 -10 -20 -9 -4 -16 -17 -16 -30 0 -13 -11 -37 -25 -52
-22 -27 -26 -28 -42 -14 -40 35 -116 49 -98 18 10 -16 -29 -10 -73 11 -22 11
-46 20 -52 20 -5 0 -10 5 -10 10 0 6 -23 10 -51 10 -46 0 -55 -4 -83 -34 -17
-19 -42 -37 -56 -40 -51 -11 -181 -18 -375 -21 -110 -1 -230 -7 -268 -14 -37
-7 -78 -10 -91 -7 -32 8 -114 -18 -156 -49 -24 -18 -47 -25 -77 -25 -24 0 -43
-4 -43 -10 0 -15 -87 -12 -94 3 -2 6 -4 3 -3 -8 3 -39 -16 -190 -24 -196 -5
-3 -9 -16 -8 -30 0 -13 2 -121 5 -239 3 -118 1 -248 -4 -289 l-9 -74 49 -52
c36 -38 73 -64 135 -94 46 -23 91 -41 99 -41 8 0 14 -4 14 -10 0 -5 10 -10 23
-11 12 0 17 -3 10 -5 -22 -9 -212 67 -221 89 -2 4 -9 7 -17 7 -7 0 -18 7 -25
15 -25 30 -32 4 -24 -89 4 -50 7 -102 7 -116 -1 -15 1 -18 4 -7 6 24 23 22 23
-4 0 -11 -5 -63 -12 -115 -10 -82 -9 -96 4 -107 18 -14 32 -77 18 -77 -6 0
-10 9 -10 20 0 27 -18 25 -22 -2 -3 -20 9 -42 52 -95 14 -17 12 -23 -5 -23
-17 0 -20 -21 -5 -36 6 -6 12 -59 13 -117 2 -98 8 -128 20 -94 2 6 4 -1 4 -18
0 -16 3 -41 7 -55 l7 -25 -17 22 c-9 13 -25 23 -36 23 -16 0 -18 -3 -9 -14 6
-8 10 -18 9 -23 -2 -4 7 -21 19 -37 13 -16 23 -25 23 -20 0 5 7 -1 15 -13 31
-45 190 -153 225 -153 21 0 130 -55 130 -66 0 -30 250 -87 292 -66 13 6 97 14
188 17 163 6 165 6 178 -16 12 -19 12 -21 -1 -16 -9 3 -26 -2 -39 -12 -35 -28
-91 -34 -358 -37 -284 -3 -278 -3 -256 -19 14 -11 13 -13 -10 -23 -35 -16 -40
-15 -68 13 -14 14 -32 25 -41 25 -8 0 -15 6 -15 13 0 7 -10 17 -22 22 -13 6
-22 16 -20 23 1 8 -6 10 -22 6 -18 -4 -25 -1 -29 13 -4 16 -5 16 -6 1 -1 -21
-17 -24 -24 -5 -3 6 -6 3 -6 -8 -1 -17 -4 -15 -20 10 -40 65 -86 81 -86 30 0
-11 -6 -19 -13 -17 -6 1 -12 -3 -12 -9 0 -6 8 -9 19 -6 14 3 17 0 13 -15 -3
-14 -8 -16 -15 -9 -6 6 -15 11 -21 11 -5 0 -1 -7 10 -15 15 -12 16 -16 5 -24
-18 -12 -5 -31 22 -31 17 0 19 -2 7 -10 -12 -7 -6 -17 30 -52 25 -23 39 -39
33 -34 -7 4 -13 3 -13 -3 0 -5 4 -11 9 -13 5 -2 25 -16 44 -32 70 -59 174
-112 292 -149 126 -40 168 -47 303 -54 280 -12 529 55 706 192 74 57 186 187
186 216 0 5 9 28 21 51 16 32 22 64 24 147 4 101 8 142 19 159 9 15 29 251 28
342 0 54 3 86 7 75 8 -20 19 175 25 456 2 87 7 168 11 180 6 24 6 24 -11 4
-16 -20 -16 -19 -9 5 5 14 10 69 12 123 3 60 8 97 15 97 7 0 9 22 4 68 -30
309 -36 428 -30 577 l7 160 -31 46 c-17 25 -38 52 -47 59 -8 7 -13 16 -10 20
8 13 -19 17 -47 6z m-1265 -1403 c-7 -2 -19 -2 -25 0 -7 3 -2 5 12 5 14 0 19
-2 13 -5z m257 -35 c0 -6 -24 -9 -57 -7 -62 3 -76 7 -69 17 6 11 126 1 126
-10z m405 -9 c-63 -9 -274 -9 -340 0 -28 3 48 7 170 7 126 0 199 -3 170 -7z
m-598 -15 c-3 -3 -12 -4 -19 -1 -8 3 -5 6 6 6 11 1 17 -2 13 -5z m7 -42 c3 -5
-8 -6 -25 -4 -16 2 -29 6 -29 8 0 8 49 4 54 -4z m-22 -62 c9 -22 12 -40 7 -40
-5 0 -9 -18 -9 -40 0 -48 20 -55 21 -7 l1 32 8 -34 c5 -21 4 -41 -3 -51 -5
-10 -7 -26 -3 -36 7 -17 17 -121 17 -169 0 -43 -10 -192 -16 -230 -9 -62 -9
-68 -2 -105 4 -19 4 -30 1 -23 -3 7 -12 9 -20 6 -16 -6 -19 -33 -4 -33 6 0 3
-11 -6 -25 -9 -14 -23 -25 -30 -25 -21 0 -30 30 -13 42 11 8 11 9 -3 5 -9 -3
-21 0 -26 6 -14 18 -12 65 4 71 19 7 18 56 -1 56 -12 0 -14 25 -12 160 1 123
4 160 14 160 7 0 13 9 13 21 0 11 10 29 23 40 l22 18 -22 1 c-27 0 -29 16 -8
56 20 39 20 104 0 104 -18 0 -21 50 -3 68 20 20 32 13 50 -28z m-342 -650 c0
-5 -2 -10 -4 -10 -3 0 -8 5 -11 10 -3 6 -1 10 4 10 6 0 11 -4 11 -10z m1375
-210 c16 -17 16 -20 2 -20 -8 0 -17 6 -20 13 -4 9 -7 9 -17 0 -11 -10 -10 -14
3 -19 9 -3 17 -10 17 -15 0 -11 -40 -12 -41 -1 0 4 -2 15 -4 25 -2 9 3 17 11
17 8 0 14 5 14 10 0 16 15 12 35 -10z m-140 -80 c0 -22 -29 -18 -33 3 -3 14 1
18 15 15 10 -2 18 -10 18 -18z m-1214 -91 c15 -17 25 -29 21 -27 -51 26 -62
33 -62 45 0 20 9 16 41 -18z m14 -99 c3 -5 2 -10 -4 -10 -5 0 -13 5 -16 10 -3
6 -2 10 4 10 5 0 13 -4 16 -10z m82 -46 c-3 -3 -12 -4 -19 -1 -8 3 -5 6 6 6
11 1 17 -2 13 -5z m166 -78 c25 -19 21 -26 -14 -21 -39 5 -51 15 -18 15 19 0
21 2 9 10 -8 5 -10 10 -5 10 6 -1 18 -7 28 -14z"/>
<path d="M3040 2151 c0 -6 4 -13 10 -16 6 -3 7 1 4 9 -7 18 -14 21 -14 7z"/>
<path d="M1145 1900 c3 -5 8 -10 11 -10 2 0 4 5 4 10 0 6 -5 10 -11 10 -5 0
-7 -4 -4 -10z"/>
<path d="M1150 1041 c0 -6 4 -13 10 -16 6 -3 7 1 4 9 -7 18 -14 21 -14 7z"/>
<path d="M1520 541 c0 -25 6 -27 13 -6 4 8 2 17 -3 20 -6 4 -10 -3 -10 -14z"/>
</g>
</svg>
