<?xml version="1.0" standalone="no"?>
<!DOCTYPE svg PUBLIC "-//W3C//DTD SVG 20010904//EN"
 "http://www.w3.org/TR/2001/REC-SVG-20010904/DTD/svg10.dtd">
<svg version="1.0" xmlns="http://www.w3.org/2000/svg"
 width="602.000000pt" height="600.000000pt" viewBox="0 0 602.000000 600.000000"
 preserveAspectRatio="xMidYMid meet">

<g transform="translate(0.000000,600.000000) scale(0.100000,-0.100000)"
fill="#000000" stroke="none">
<path d="M3040 5907 c-3 -3 -108 -8 -235 -11 -217 -6 -527 -35 -605 -57 -19
-5 -75 -14 -125 -20 -53 -5 -105 -17 -128 -29 -25 -13 -47 -18 -64 -14 -18 5
-24 3 -19 -5 5 -7 0 -11 -13 -11 -11 0 -44 -9 -73 -21 -29 -11 -65 -19 -80
-17 -17 3 -28 0 -28 -7 0 -6 -21 -22 -47 -35 -27 -13 -60 -31 -75 -42 -14 -10
-28 -14 -30 -10 -1 4 -14 2 -28 -5 -14 -7 -19 -13 -12 -13 10 0 9 -7 -4 -28
-16 -27 -15 -31 1 -56 l18 -27 -26 7 c-17 4 -27 2 -27 -5 0 -6 5 -11 11 -11 8
0 8 -5 -1 -15 -7 -8 -17 -15 -23 -15 -5 0 -23 -14 -39 -30 -16 -17 -45 -34
-66 -38 -31 -7 -38 -12 -40 -37 -2 -16 -11 -34 -19 -41 -9 -6 -14 -18 -10 -27
3 -9 1 -17 -6 -20 -23 -7 12 -85 65 -142 91 -100 244 -184 473 -261 147 -49
165 -50 219 -10 31 23 213 115 293 149 42 18 188 60 268 78 89 20 203 41 248
46 43 5 47 4 40 -13 -6 -16 -3 -16 21 4 45 35 57 30 53 -25 -3 -27 0 -54 6
-60 13 -17 6 -16 -43 3 -32 13 -42 23 -47 45 -4 20 -9 26 -17 20 -6 -5 -22
-11 -36 -13 -17 -2 -24 -8 -22 -20 2 -11 -3 -18 -13 -18 -21 0 -20 -44 3 -66
16 -17 17 -16 20 17 5 50 16 54 53 21 42 -37 107 -72 134 -72 11 -1 31 -7 45
-15 l25 -14 -30 -1 c-29 -1 -29 -2 -7 -11 13 -5 28 -7 33 -3 18 11 9 32 -16
38 -35 9 -23 24 15 18 19 -3 30 -10 30 -20 0 -12 3 -13 11 -5 9 9 17 6 31 -13
11 -13 26 -24 35 -24 11 0 9 5 -8 18 -17 15 -19 21 -9 27 8 5 11 4 7 -3 -5 -6
8 -13 33 -17 22 -4 40 -10 40 -15 0 -4 -9 -6 -20 -3 -16 4 -19 2 -14 -12 6
-13 2 -16 -22 -13 -16 2 -39 9 -51 16 -25 14 -30 4 -10 -20 9 -12 24 -14 67
-9 50 5 55 8 55 31 0 17 -7 26 -23 30 -13 3 -23 10 -23 15 0 14 51 19 51 6 0
-6 8 -11 17 -11 9 0 27 -9 39 -21 18 -17 26 -19 41 -9 16 10 16 11 -4 7 -24
-5 -32 7 -10 17 6 3 3 4 -7 3 -10 -1 -21 4 -23 11 -3 8 6 12 26 12 17 0 31 -5
31 -12 0 -9 3 -9 12 0 7 7 20 12 31 12 10 0 34 16 53 35 18 19 40 35 48 35 18
0 39 -26 31 -40 -3 -5 -1 -10 4 -10 12 0 15 40 3 55 -4 6 -20 21 -36 33 l-29
22 -11 -21 c-6 -11 -24 -28 -41 -36 -16 -9 -37 -20 -45 -25 -41 -23 -65 -29
-85 -20 -19 9 -19 9 5 16 52 15 80 29 75 37 -5 7 -33 1 -85 -18 -8 -3 -49 -8
-90 -10 -44 -3 -81 -11 -91 -19 -20 -18 -33 -18 -70 2 -39 20 -34 25 14 15 39
-9 42 4 3 19 l-21 9 23 0 c40 1 26 30 -19 37 -36 6 -40 10 -38 33 2 29 -8 60
-28 79 -7 8 -11 18 -8 23 8 12 -34 11 -170 -1 -103 -10 -553 -99 -603 -120
-36 -15 -112 -22 -125 -11 -7 5 -23 11 -37 13 -25 3 -25 4 -28 121 -2 105 0
122 18 152 11 18 26 38 33 44 19 15 267 68 432 92 257 37 768 36 1030 -2 85
-12 122 -25 154 -53 22 -20 23 -25 16 -116 -3 -52 -11 -102 -15 -111 -15 -27
-51 -30 -161 -14 -57 8 -116 15 -130 15 -26 0 -27 0 -11 -34 19 -42 52 -56
196 -85 61 -12 122 -29 137 -37 15 -7 65 -21 111 -30 46 -8 110 -28 143 -44
33 -16 89 -38 125 -50 36 -12 72 -27 80 -34 8 -7 29 -20 45 -28 54 -26 79 -42
125 -82 41 -35 49 -38 90 -33 54 7 180 48 180 59 0 4 -25 26 -55 48 -74 55
-74 75 1 66 l56 -6 -7 127 c-7 137 1 183 32 183 66 0 347 -143 369 -188 l11
-23 28 33 c40 47 59 96 45 113 -7 9 -9 27 -5 46 7 30 6 31 -19 27 -30 -6 -46
9 -25 24 10 7 8 8 -8 3 -31 -8 -37 10 -11 34 23 22 23 22 -7 39 -17 9 -17 11
-3 12 29 0 32 38 6 65 -13 14 -30 25 -38 26 -10 0 -11 2 -2 6 16 6 15 23 -1
23 -8 0 -22 9 -32 20 -10 11 -25 20 -33 20 -8 0 -12 6 -8 15 3 8 1 15 -4 15
-6 0 -10 -4 -10 -10 0 -5 -5 -10 -11 -10 -6 0 -9 5 -7 12 5 13 -73 58 -100 58
-15 0 -15 2 -2 11 11 8 7 9 -19 5 -25 -5 -32 -3 -28 8 7 18 -38 39 -67 31 -17
-5 -18 -4 -6 4 12 9 9 11 -13 11 -16 0 -26 4 -23 9 7 11 -49 22 -71 14 -10 -4
-14 -2 -10 4 10 15 -79 46 -111 39 -20 -5 -23 -4 -12 4 12 8 9 10 -13 10 -16
0 -26 4 -23 8 3 5 0 9 -7 10 -7 0 -36 7 -65 15 -28 9 -85 20 -125 27 -182 28
-260 42 -275 47 -15 4 -15 3 -2 -7 13 -10 12 -11 -5 -5 -56 21 -247 40 -490
50 -77 3 -178 8 -225 11 -47 3 -88 3 -90 1z m-453 -33 c-3 -3 -12 -4 -19 -1
-8 3 -5 6 6 6 11 1 17 -2 13 -5z m1040 -10 c-3 -3 -12 -4 -19 -1 -8 3 -5 6 6
6 11 1 17 -2 13 -5z m-535 -31 c15 -4 28 -11 28 -15 0 -5 0 -12 0 -16 0 -22
-413 -42 -425 -22 -4 6 -21 8 -41 4 -30 -5 -34 -4 -34 15 0 20 9 25 38 22 8
-1 19 3 26 8 31 26 328 29 408 4z m-672 -19 c0 -11 -6 -14 -20 -9 -14 4 -20 2
-20 -8 0 -10 -8 -13 -25 -9 -14 2 -25 0 -25 -5 0 -10 -26 -15 -180 -34 -125
-16 -128 -17 -139 -24 -6 -3 -11 1 -11 9 0 9 1 16 3 16 2 0 37 12 78 26 41 14
121 32 179 39 147 18 160 18 160 -1z m1100 -4 c0 -5 -2 -10 -4 -10 -3 0 -8 5
-11 10 -3 6 -1 10 4 10 6 0 11 -4 11 -10z m239 -1 c36 -6 75 -14 86 -19 11 -5
38 -11 60 -12 30 -2 41 -8 43 -22 2 -10 0 -22 -5 -27 -17 -17 -296 23 -370 52
-77 30 54 50 186 28z m1191 -490 c0 -6 -4 -7 -10 -4 -5 3 -10 11 -10 16 0 6 5
7 10 4 6 -3 10 -11 10 -16z m-1730 -329 c0 -17 -28 -23 -68 -14 l-37 8 35 6
c54 11 70 11 70 0z"/>
<path d="M1420 5550 c0 -5 4 -10 9 -10 6 0 13 5 16 10 3 6 -1 10 -9 10 -9 0
-16 -4 -16 -10z"/>
<path d="M3026 5205 c-11 -8 -15 -15 -9 -15 6 0 16 7 23 15 16 19 11 19 -14 0z"/>
<path d="M3210 5200 c8 -5 22 -9 30 -9 10 0 8 3 -5 9 -27 12 -43 12 -25 0z"/>
<path d="M3134 5176 c-8 -20 -1 -29 20 -24 13 3 13 6 1 22 -13 17 -15 18 -21
2z"/>
<path d="M3040 5169 c0 -5 5 -7 10 -4 6 3 10 8 10 11 0 2 -4 4 -10 4 -5 0 -10
-5 -10 -11z"/>
<path d="M3197 5173 c-13 -13 -7 -21 13 -16 11 3 17 9 14 14 -6 11 -18 12 -27
2z"/>
<path d="M5106 5081 c-32 -39 -48 -52 -176 -138 -97 -65 -130 -93 -130 -110 0
-13 -42 -28 -71 -26 -11 1 -15 -4 -12 -16 3 -13 -6 -21 -36 -31 -23 -7 -41
-19 -41 -25 0 -7 -8 -15 -17 -19 -10 -3 -36 -12 -58 -20 -22 -8 -32 -14 -22
-15 9 -1 17 -5 17 -11 0 -6 -18 -7 -47 -3 -33 4 -44 3 -39 -5 5 -8 -3 -10 -26
-7 -26 4 -29 3 -13 -4 15 -8 7 -9 -32 -7 -29 2 -53 -1 -53 -5 0 -5 -7 -9 -15
-9 -8 0 -15 -3 -15 -7 0 -5 -34 -9 -77 -10 -42 -1 -79 -6 -82 -12 -3 -5 -26
-12 -51 -15 -73 -10 -161 -27 -215 -41 -27 -8 -90 -17 -140 -20 -49 -3 -112
-8 -140 -10 -103 -9 -383 -7 -450 4 -38 6 -104 11 -145 11 -41 0 -210 13 -375
29 -226 22 -304 26 -314 17 -11 -8 -13 -8 -7 2 7 12 -9 17 -46 14 -10 -1 -18
2 -18 7 0 5 -26 12 -58 16 -31 3 -69 13 -84 21 -14 7 -35 14 -47 14 -19 0 -38
6 -108 37 -39 17 -44 37 -8 30 16 -3 24 0 22 7 -2 6 -41 21 -88 33 -46 12
-110 31 -141 42 -32 12 -63 21 -70 21 -7 0 -37 10 -68 21 -30 12 -65 26 -77
30 -13 5 -33 13 -45 19 -42 17 -142 50 -155 50 -29 0 -14 -36 66 -158 23 -34
26 -50 34 -222 12 -259 -1 -469 -34 -532 -16 -33 -17 -38 -3 -38 8 0 22 -7 30
-15 8 -8 25 -21 36 -30 34 -23 14 -28 -23 -6 -72 44 -77 45 -105 30 -15 -8
-31 -26 -36 -42 -8 -20 -13 -25 -22 -18 -21 17 -76 9 -76 -11 0 -10 -4 -18
-10 -18 -5 0 -20 -12 -34 -27 -51 -55 -47 -186 9 -274 47 -75 61 -105 80 -174
9 -33 21 -68 26 -77 5 -10 9 -31 9 -48 0 -16 4 -49 10 -72 23 -101 33 -166 31
-205 -1 -24 3 -43 9 -43 5 0 10 -18 10 -40 0 -22 5 -40 10 -40 6 0 10 -18 10
-40 0 -38 -2 -40 -30 -40 -28 0 -30 -3 -30 -36 0 -28 -7 -43 -27 -60 -16 -13
-32 -24 -38 -24 -17 0 -38 17 -32 26 3 5 -8 10 -25 11 -27 2 -29 1 -16 -15 20
-26 80 -84 119 -114 28 -23 31 -27 14 -28 -14 0 -20 -7 -21 -25 -1 -14 3 -25
8 -25 5 0 21 -9 35 -20 28 -22 48 -27 37 -8 -4 6 -3 8 4 5 5 -4 8 -16 5 -27
-4 -15 0 -20 16 -20 11 0 21 -4 21 -9 0 -5 17 -16 37 -24 l38 -16 -55 6 c-30
3 -57 9 -60 13 -12 15 -72 52 -77 47 -3 -3 5 -16 16 -29 12 -12 17 -24 11 -26
-5 -2 -10 -21 -10 -43 0 -37 -2 -39 -30 -39 l-30 0 0 -120 c0 -73 -4 -120 -10
-120 -6 0 -10 -33 -10 -80 0 -47 4 -80 10 -80 6 0 10 -18 10 -40 0 -29 4 -40
15 -40 8 0 15 -9 15 -19 0 -13 8 -21 23 -23 15 -2 23 -11 25 -28 5 -32 22 -52
39 -46 7 3 23 -4 35 -16 20 -20 20 -22 4 -28 -15 -5 -15 -8 -4 -16 7 -6 21
-14 30 -17 10 -4 18 -13 18 -22 0 -11 12 -15 43 -16 28 -1 34 -3 17 -7 -23 -4
-22 -6 20 -26 33 -16 45 -27 44 -42 0 -16 5 -20 18 -16 13 3 18 14 18 43 0 22
5 39 10 39 6 0 10 -20 10 -45 0 -39 -3 -45 -21 -45 -11 0 -17 -5 -14 -10 7
-12 45 -14 45 -2 0 4 15 13 33 20 l32 12 -27 -24 c-33 -27 -37 -51 -9 -43 13
3 18 1 15 -8 -3 -7 0 -15 8 -18 7 -2 0 -3 -17 0 -16 2 -31 8 -33 13 -2 6 -9
10 -15 10 -17 0 -123 57 -192 103 -87 59 -134 96 -188 149 -65 63 -81 65 -85
11 -3 -40 -1 -43 22 -43 26 0 26 -1 26 -80 0 -64 3 -80 15 -80 8 0 15 -7 15
-15 0 -19 -24 -19 -40 0 -7 8 -21 15 -31 15 -15 0 -17 -6 -12 -38 3 -20 9 -39
13 -42 4 -3 10 -15 14 -27 4 -13 12 -23 17 -23 5 0 9 -25 9 -55 0 -30 5 -55
10 -55 6 0 10 -33 10 -80 0 -52 -4 -80 -11 -80 -12 0 -109 -97 -109 -109 0 -4
5 -12 11 -18 6 -6 8 -17 4 -23 -6 -9 -10 -9 -16 1 -5 8 -9 10 -9 4 0 -5 5 -17
10 -25 6 -10 10 -11 10 -2 0 6 4 12 10 12 5 0 7 -7 4 -15 -5 -11 -2 -13 10 -9
9 3 16 10 16 15 0 5 4 9 9 9 5 0 3 -12 -4 -28 -18 -36 -15 -50 20 -97 94 -124
236 -239 460 -372 129 -76 308 -151 570 -238 90 -30 367 -76 565 -94 168 -16
563 -14 695 3 439 56 450 58 725 147 194 63 256 93 403 195 114 79 180 135
262 225 58 64 66 76 70 101 2 13 7 34 11 48 7 22 6 24 -9 11 -12 -9 -17 -10
-17 -2 0 6 7 14 15 17 21 9 19 31 -5 44 -11 6 -20 17 -20 25 0 28 -26 15 -50
-25 -14 -22 -28 -40 -31 -40 -3 0 -5 19 -5 42 l1 43 -37 -3 -38 -4 0 41 c0 23
5 41 11 41 7 0 10 17 7 45 -2 29 1 46 9 50 7 2 13 11 13 19 0 9 11 22 23 31
13 8 30 33 37 55 7 22 17 40 22 40 5 0 6 11 2 25 -4 15 -2 25 5 25 6 0 11 5
11 10 0 6 12 23 26 38 25 25 26 25 21 5 -3 -14 1 -24 10 -27 22 -9 23 -8 16
11 -5 11 -3 14 6 8 7 -4 11 -18 8 -32 -7 -35 9 -15 21 27 5 19 13 43 17 53 4
9 3 17 -2 17 -5 0 -14 -12 -21 -28 l-12 -27 5 28 c6 29 -3 34 -24 14 -11 -10
-13 -9 -9 3 3 8 13 17 24 19 22 4 54 30 54 43 0 5 -9 7 -20 3 -15 -5 -18 -3
-14 9 3 9 10 16 16 16 5 0 8 48 7 120 -2 66 -4 118 -6 117 -1 -1 -42 -40 -90
-87 -107 -103 -176 -156 -268 -205 -38 -21 -72 -41 -75 -45 -7 -9 -219 -97
-250 -103 -14 -2 -33 -8 -42 -12 -11 -4 -18 -3 -18 4 0 6 8 11 17 11 9 0 41
14 70 30 30 17 58 28 63 25 5 -3 11 -1 15 5 3 5 -1 10 -9 10 -9 0 -16 5 -16
11 0 7 10 9 25 5 18 -5 27 -1 34 13 6 10 7 21 4 25 -3 3 -1 6 5 6 7 0 12 7 12
15 0 14 -3 13 -24 -2 -13 -10 -21 -24 -19 -30 6 -14 -13 -18 -21 -5 -8 13 54
72 75 72 11 0 19 6 19 13 1 6 13 21 27 32 14 11 34 28 44 37 19 18 39 24 39
12 0 -9 -42 -68 -55 -76 -6 -5 -2 -8 9 -8 24 0 66 45 66 70 0 18 -16 35 -34
35 -17 0 -17 22 -1 39 9 9 14 20 10 26 -3 6 1 7 9 4 12 -4 16 0 16 16 0 11 -4
19 -9 16 -15 -10 -19 54 -5 93 7 20 13 53 14 74 0 20 4 37 9 37 5 0 14 20 20
45 6 25 16 43 21 40 6 -4 10 11 10 34 0 37 2 41 25 41 23 0 25 4 25 40 0 29 4
40 15 40 19 0 19 9 -1 35 -10 14 -13 32 -8 63 6 41 5 43 -12 33 -24 -13 -137
-51 -150 -51 -5 1 21 17 58 35 42 22 66 40 62 48 -4 11 25 46 85 101 11 10 20
21 19 25 -2 18 3 31 13 31 10 0 76 47 107 77 7 7 17 13 21 13 16 0 158 149
185 194 29 49 19 53 -20 6 -61 -72 -193 -190 -212 -190 -6 0 -17 -6 -24 -13
-7 -6 -30 -20 -50 -29 -43 -20 -42 -22 -38 54 1 26 -5 44 -19 60 -22 22 -28
48 -12 48 5 0 9 10 10 23 0 12 6 58 12 103 10 66 16 82 33 90 25 11 34 44 12
44 -9 0 -16 4 -16 9 0 19 23 71 31 71 5 0 9 18 9 40 0 22 5 40 10 40 6 0 10
-7 10 -17 0 -15 1 -15 18 0 10 10 28 17 40 17 15 0 22 6 22 19 0 11 15 28 35
40 19 11 35 25 35 32 0 6 16 26 36 44 22 20 33 38 29 45 -4 7 -2 22 4 33 14
30 56 187 71 271 7 39 24 97 36 130 28 70 40 165 29 233 -7 41 -9 44 -15 23
-7 -23 -8 -22 -15 13 -12 61 -41 132 -52 130 -6 -1 -14 4 -17 13 -9 23 25 13
52 -16 l24 -25 -14 25 c-34 57 -43 70 -52 70 -6 0 -5 -5 2 -12 15 -15 16 -32
1 -23 -5 4 -19 -1 -30 -11 -10 -9 -22 -14 -26 -11 -3 4 -1 7 5 7 14 0 15 93 3
230 -5 52 -13 148 -16 213 -6 96 -10 115 -21 106 -10 -8 -14 -3 -19 23 -7 37
23 132 57 180 34 48 41 84 25 116 -12 25 -12 30 0 38 9 5 13 20 11 35 l-3 26
-29 -36z m-3189 -367 c-3 -3 -12 -4 -19 -1 -8 3 -5 6 6 6 11 1 17 -2 13 -5z
m1683 -333 c0 -41 -5 -55 -27 -78 -47 -49 -78 -63 -139 -63 -47 0 -154 23
-173 37 -3 2 -6 22 -7 44 -2 31 1 39 12 35 16 -6 19 10 4 19 -16 10 -12 28 5
21 8 -3 14 0 12 7 -3 16 55 24 196 26 l117 1 0 -49z m-147 -258 c-18 -2 -48
-2 -65 0 -18 2 -4 4 32 4 36 0 50 -2 33 -4z m1622 -3 c3 -5 1 -10 -4 -10 -6 0
-11 5 -11 10 0 6 2 10 4 10 3 0 8 -4 11 -10z m95 -28 c0 -15 -2 -15 -10 -2
-13 20 -13 33 0 25 6 -3 10 -14 10 -23z m-983 -198 c25 -24 48 -44 52 -44 5 0
16 9 26 20 26 28 40 25 84 -17 63 -61 68 -64 75 -47 3 8 11 12 17 9 6 -4 8
-14 4 -22 -3 -9 -3 -24 0 -33 5 -16 9 -17 34 -4 15 8 41 16 57 18 50 7 74 18
74 32 0 8 7 14 15 14 8 0 15 -7 15 -16 0 -10 6 -14 18 -10 25 8 105 25 116 26
5 0 2 -8 -7 -18 -17 -19 -24 -47 -9 -40 63 31 63 31 60 67 -3 32 0 36 22 39
14 2 31 9 38 14 7 6 15 8 19 4 10 -9 -15 -31 -35 -31 -13 0 -16 -7 -14 -28 2
-18 -2 -29 -12 -33 -9 -3 -16 -12 -16 -20 0 -8 -4 -14 -9 -14 -18 0 -91 -78
-78 -83 6 -3 -2 -6 -18 -6 -19 -1 -35 -9 -43 -21 -7 -12 -23 -20 -38 -20 -16
0 -36 -11 -52 -30 -15 -16 -35 -30 -46 -30 -25 0 -56 -28 -56 -52 0 -15 -3
-16 -19 -6 -15 9 -23 9 -36 -2 -10 -8 -32 -13 -50 -12 -20 2 -39 -3 -50 -14
-14 -14 -40 -19 -131 -22 -63 -3 -114 -8 -114 -13 0 -5 -54 -9 -120 -9 -73 0
-120 -4 -120 -10 0 -6 -33 -10 -80 -10 -47 0 -80 4 -80 10 0 6 -9 10 -20 10
-17 0 -20 -7 -20 -40 0 -39 -1 -40 -35 -40 -34 0 -35 -1 -35 -37 -1 -29 -7
-42 -25 -56 -22 -15 -25 -16 -25 -2 0 8 7 15 15 15 10 0 15 10 15 29 0 16 3
43 6 60 6 27 4 31 -15 31 -17 0 -21 -6 -21 -35 0 -41 -40 -86 -73 -84 -12 1
-41 1 -64 1 -35 -2 -42 -6 -45 -24 -4 -30 -32 -30 -36 -1 -4 30 -32 36 -133
29 -75 -6 -83 -4 -96 14 -18 26 -33 26 -33 0 0 -27 -5 -25 -40 13 -24 25 -32
29 -39 18 -7 -11 -12 -10 -22 8 -8 11 -24 21 -36 21 -14 0 -23 6 -23 16 0 14
-10 15 -80 9 -77 -7 -80 -6 -80 14 0 18 6 21 40 21 22 0 40 5 40 10 0 6 -11
10 -25 10 -22 0 -25 4 -25 40 0 29 -4 40 -15 40 -11 0 -15 -11 -15 -40 l0 -40
-40 0 c-33 0 -40 -3 -40 -19 0 -12 -11 -23 -31 -30 -48 -17 -49 -15 -50 47 0
48 -2 54 -11 35 -13 -27 -30 -29 -52 -7 -9 8 -16 11 -16 6 0 -12 -73 -9 -82 3
-5 6 -8 3 -8 -7 0 -27 -20 -32 -36 -9 -8 12 -24 21 -36 21 -32 0 -98 41 -98
62 0 11 -7 18 -20 18 -13 0 -20 -7 -20 -20 0 -14 -7 -20 -21 -20 -18 0 -20 2
-8 16 11 13 8 19 -17 39 -16 13 -42 31 -59 40 -77 42 -77 41 -61 54 11 9 16 9
21 0 6 -8 10 -8 15 1 6 10 21 11 67 2 94 -18 152 -22 158 -12 3 6 16 10 27 10
19 0 19 -2 -6 -21 -14 -11 -23 -25 -20 -30 3 -6 11 -3 18 6 15 21 91 38 138
30 32 -6 38 -4 38 10 0 15 -3 15 -15 5 -19 -16 -26 -10 -19 17 4 14 11 19 25
16 13 -4 19 0 19 10 0 9 16 28 35 43 36 27 36 27 160 21 l125 -7 0 35 c0 30 3
35 24 35 14 0 28 5 31 10 3 6 46 10 96 10 88 0 89 0 89 -25 0 -22 4 -25 40
-25 22 0 40 -4 40 -10 0 -5 5 -10 10 -10 13 0 13 24 -2 71 -10 37 -14 39 -50
39 -21 0 -38 5 -38 10 0 6 18 10 40 10 22 0 40 -5 40 -10 0 -7 18 -9 48 -7 26
3 99 10 162 16 187 17 409 31 503 31 l87 0 0 -38 c0 -21 -6 -44 -12 -50 -10
-10 -10 -15 -1 -20 16 -10 93 -2 93 9 0 5 18 9 40 9 24 0 40 -5 40 -12 0 -6 3
-9 6 -6 12 12 -8 78 -24 78 -13 0 -12 3 4 18 26 26 63 12 121 -44z m-2657 20
c0 -8 -5 -12 -10 -9 -6 3 -17 -1 -26 -9 -15 -16 -34 -14 -34 3 0 9 39 29 58
30 6 1 12 -6 12 -15z m2720 6 c13 -9 13 -10 0 -9 -8 1 -26 5 -40 9 l-25 8 25
1 c14 0 32 -4 40 -9z m-1307 -27 c-13 -2 -33 -2 -45 0 -13 2 -3 4 22 4 25 0
35 -2 23 -4z m-1023 -163 c0 -5 -5 -12 -11 -16 -14 -8 -33 11 -25 25 7 11 36
4 36 -9z m10 -40 c0 -5 -2 -10 -4 -10 -3 0 -8 5 -11 10 -3 6 -1 10 4 10 6 0
11 -4 11 -10z m77 -6 c-3 -3 -12 -4 -19 -1 -8 3 -5 6 6 6 11 1 17 -2 13 -5z
m253 -8 c0 -3 -4 -8 -10 -11 -5 -3 -10 -1 -10 4 0 6 5 11 10 11 6 0 10 -2 10
-4z m2460 -66 c0 -5 -7 -10 -16 -10 -8 0 -12 5 -9 10 3 6 10 10 16 10 5 0 9
-4 9 -10z m-3000 -100 c0 -5 -2 -10 -4 -10 -3 0 -8 5 -11 10 -3 6 -1 10 4 10
6 0 11 -4 11 -10z m1720 -240 c0 -5 -2 -10 -4 -10 -3 0 -8 5 -11 10 -3 6 -1
10 4 10 6 0 11 -4 11 -10z m-1937 -557 c-13 -2 -33 -2 -45 0 -13 2 -3 4 22 4
25 0 35 -2 23 -4z m147 -33 c0 -22 -4 -40 -10 -40 -5 0 -10 18 -10 40 0 22 5
40 10 40 6 0 10 -18 10 -40z m-375 -9 c-3 -6 -11 -11 -17 -11 -6 0 -6 6 2 15
14 17 26 13 15 -4z m565 -21 c0 -5 -18 -10 -40 -10 -22 0 -40 5 -40 10 0 6 18
10 40 10 22 0 40 -4 40 -10z m120 0 c0 -5 -4 -10 -10 -10 -5 0 -10 -18 -10
-40 0 -38 2 -40 30 -40 l30 0 -2 -82 c-1 -46 -3 -64 -5 -40 -4 39 -6 42 -34
42 -27 0 -29 -3 -29 -37 0 -52 -24 -72 -72 -59 -33 9 -38 14 -38 38 0 15 5 28
10 28 6 0 10 -11 10 -24 0 -26 18 -35 58 -28 18 4 22 11 22 43 0 39 0 39 -40
39 l-40 0 0 40 0 40 40 0 c40 0 40 0 40 38 0 36 14 62 32 62 4 0 8 -4 8 -10z
m-457 -7 c-13 -2 -33 -2 -45 0 -13 2 -3 4 22 4 25 0 35 -2 23 -4z m-88 -53 c3
-5 -1 -10 -9 -10 -9 0 -16 5 -16 10 0 6 4 10 9 10 6 0 13 -4 16 -10z m93 -36
c12 -4 22 -10 22 -15 0 -13 -23 -10 -44 6 -21 16 -15 18 22 9z m92 -3 c0 -5
-9 -7 -20 -4 -11 3 -20 7 -20 9 0 2 9 4 20 4 11 0 20 -4 20 -9z m-273 -17 c-3
-3 -12 -4 -19 -1 -8 3 -5 6 6 6 11 1 17 -2 13 -5z m938 -38 c1 -15 7 -31 15
-36 10 -6 11 -12 5 -19 -12 -11 -27 -14 -82 -12 -41 1 -43 2 -43 31 0 27 6 34
43 50 51 24 62 21 62 -14z m-455 -26 c0 -12 -37 -12 -65 0 -15 7 -10 9 23 9
23 1 42 -3 42 -9z m-95 -10 c-3 -5 -13 -10 -21 -10 -8 0 -14 5 -14 10 0 6 9
10 21 10 11 0 17 -4 14 -10z m45 -20 c0 -5 -4 -10 -10 -10 -5 0 -10 5 -10 10
0 6 5 10 10 10 6 0 10 -4 10 -10z m1730 -15 c30 -15 30 -16 30 -105 0 -79 -2
-90 -17 -90 -10 0 -36 -3 -58 -6 -30 -4 -36 -3 -25 5 13 10 13 11 0 11 -12 1
-12 3 3 14 22 17 22 42 0 50 -15 6 -15 8 -3 16 12 7 11 10 -4 16 -10 4 -27 2
-37 -5 -12 -7 -19 -7 -19 -1 0 5 -9 10 -20 10 -13 0 -20 7 -20 20 0 13 7 20
20 20 11 0 20 5 20 10 0 6 18 10 40 10 33 0 40 3 40 20 0 24 11 25 50 5z
m-1550 -49 c0 -2 -7 -7 -16 -10 -8 -3 -12 -2 -9 4 6 10 25 14 25 6z m-420 -16
c0 -5 -7 -10 -15 -10 -8 0 -15 5 -15 10 0 6 7 10 15 10 8 0 15 -4 15 -10z
m-53 -36 c-3 -3 -12 -4 -19 -1 -8 3 -5 6 6 6 11 1 17 -2 13 -5z m161 -16 c-6
-18 -28 -21 -28 -4 0 9 7 16 16 16 9 0 14 -5 12 -12z m1929 6 c-3 -3 -12 -4
-19 -1 -8 3 -5 6 6 6 11 1 17 -2 13 -5z m-212 -14 c3 -5 -3 -10 -14 -10 -12 0
-21 5 -21 10 0 6 6 10 14 10 8 0 18 -4 21 -10z m27 -32 c-9 -9 -12 -7 -12 12
0 19 3 21 12 12 9 -9 9 -15 0 -24z m-1687 -32 c4 -18 5 -44 2 -57 -2 -15 -5
-7 -6 19 -1 30 -5 42 -16 42 -16 0 -20 12 -8 23 14 14 22 6 28 -27z m1704 -13
c2 -2 -3 -3 -11 -3 -9 0 -19 7 -22 16 -6 15 -4 15 11 3 10 -7 20 -15 22 -16z
m168 21 c-3 -3 -12 -4 -19 -1 -8 3 -5 6 6 6 11 1 17 -2 13 -5z m-1800 -66 c-2
-13 -4 -3 -4 22 0 25 2 35 4 23 2 -13 2 -33 0 -45z m403 -13 c0 -8 -7 -15 -15
-15 -8 0 -15 7 -15 15 0 8 7 15 15 15 8 0 15 -7 15 -15z m80 -2 c0 -8 25 -11
99 -13 46 -1 76 -17 62 -34 -6 -7 -8 -16 -4 -19 9 -10 -12 -9 -81 4 -69 13
-137 39 -118 46 6 3 10 9 6 14 -3 5 4 9 15 9 12 0 21 -3 21 -7z m1183 -40
c-13 -2 -33 -2 -45 0 -13 2 -3 4 22 4 25 0 35 -2 23 -4z m-1423 -33 c0 -5 -18
-10 -40 -10 -22 0 -40 5 -40 10 0 6 18 10 40 10 22 0 40 -4 40 -10z m273 -7
c-7 -2 -19 -2 -25 0 -7 3 -2 5 12 5 14 0 19 -2 13 -5z m1280 -10 c-5 -21 45
-16 50 5 3 10 4 7 4 -8 -1 -21 -6 -25 -31 -26 -17 -1 -60 -6 -96 -12 -36 -7
-103 -12 -150 -11 -73 0 -82 2 -67 13 9 7 17 18 17 24 0 6 28 13 63 16 34 3
76 8 92 10 60 7 120 1 118 -11z m-1205 0 c-10 -2 -26 -2 -35 0 -10 3 -2 5 17
5 19 0 27 -2 18 -5z m852 2 c0 -3 -8 -15 -19 -26 -16 -17 -20 -18 -31 -4 -10
12 -8 16 11 24 28 11 39 13 39 6z m-862 -38 c26 -11 26 -11 -18 -17 -25 -4
-36 -8 -25 -9 33 -2 49 -17 41 -37 -5 -12 -9 -15 -14 -7 -10 17 -87 19 -106 4
-9 -8 -20 -11 -24 -7 -4 4 2 14 12 22 17 12 17 14 3 14 -10 0 -14 5 -11 14 3
8 1 17 -5 21 -6 3 -11 10 -11 16 0 12 123 2 158 -14z m1182 -47 c0 -6 -45 -10
-115 -10 -94 0 -117 -3 -121 -15 -8 -21 -26 -19 -22 3 2 14 17 18 83 23 139 9
175 9 175 -1z m-81 -36 c2 -2 -25 -5 -60 -6 l-64 -1 50 -7 c41 -6 46 -8 28
-15 -13 -4 -23 -11 -23 -16 0 -15 -29 -10 -38 7 -6 12 -18 15 -36 12 -14 -3
-26 -1 -26 3 0 5 9 9 21 9 11 0 18 4 14 9 -3 5 5 11 17 13 25 4 110 -2 117 -8z
m1 -55 c0 -18 -2 -19 -15 -9 -8 7 -15 16 -15 21 0 5 7 9 15 9 9 0 15 -9 15
-21z m57 -65 c-3 -3 -12 -4 -19 -1 -8 3 -5 6 6 6 11 1 17 -2 13 -5z m-76 -21
c15 4 19 0 19 -19 0 -16 6 -24 17 -24 13 0 14 3 5 12 -7 7 -12 16 -12 20 0 16
27 7 50 -17 19 -20 26 -22 38 -13 11 10 16 9 23 -5 6 -9 18 -17 27 -17 12 0
21 -13 28 -39 9 -32 8 -38 -3 -34 -15 6 -18 -13 -3 -22 6 -3 6 -15 0 -30 -6
-16 -5 -25 3 -29 9 -3 9 -7 -1 -13 -8 -6 -11 -31 -10 -76 2 -37 -1 -67 -6 -67
-5 0 -6 -22 -4 -50 3 -27 1 -50 -4 -50 -5 0 -16 -6 -23 -14 -28 -28 -146 -48
-251 -43 -105 6 -124 8 -124 15 0 2 6 18 14 35 8 18 18 46 22 62 7 30 9 40 17
130 7 73 28 146 43 152 18 6 18 69 2 77 -9 4 -8 5 2 5 62 -4 70 0 70 36 0 33
2 35 21 24 12 -6 30 -9 40 -6z m95 -20 c-10 -10 -19 5 -10 18 6 11 8 11 12 0
2 -7 1 -15 -2 -18z m-2309 -95 c-3 -8 -6 -5 -6 6 -1 11 2 17 5 13 3 -3 4 -12
1 -19z m296 -25 c-13 -2 -33 -2 -45 0 -13 2 -3 4 22 4 25 0 35 -2 23 -4z m765
-61 c2 -7 -3 -12 -12 -12 -24 0 -19 -18 13 -51 16 -16 34 -29 40 -29 6 0 11
-18 11 -40 0 -28 -4 -40 -14 -40 -8 0 -16 -5 -18 -11 -3 -9 -10 -9 -26 0 -17
9 -22 21 -22 51 0 29 -4 40 -15 40 -11 0 -15 11 -15 40 0 29 4 40 15 40 8 0
15 7 15 16 0 17 22 14 28 -4z m-1034 -157 c3 -8 1 -15 -4 -15 -6 0 -10 7 -10
15 0 8 2 15 4 15 2 0 6 -7 10 -15z m556 -19 c0 -9 -30 -14 -35 -6 -4 6 3 10
14 10 12 0 21 -2 21 -4z m50 -6 c0 -5 -2 -10 -4 -10 -3 0 -8 5 -11 10 -3 6 -1
10 4 10 6 0 11 -4 11 -10z m-105 -10 c3 -5 -1 -10 -9 -10 -9 0 -16 5 -16 10 0
6 4 10 9 10 6 0 13 -4 16 -10z m2640 -10 c-3 -5 -11 -10 -16 -10 -6 0 -7 5 -4
10 3 6 11 10 16 10 6 0 7 -4 4 -10z m-23 -197 c-38 -27 -52 -42 -49 -55 4 -15
1 -17 -19 -12 -17 4 -26 1 -30 -11 -5 -13 -9 -14 -15 -4 -6 10 -11 6 -18 -14
-8 -19 -17 -27 -36 -27 -14 0 -25 -4 -25 -10 0 -5 -7 -10 -15 -10 -8 0 -15 -5
-15 -11 0 -7 -12 -10 -29 -7 -17 2 -28 1 -26 -2 5 -8 -29 -26 -62 -33 -23 -5
-40 18 -21 29 7 5 8 2 4 -7 -4 -8 -1 -6 7 4 8 9 20 17 28 17 10 0 10 3 1 12
-7 7 -12 21 -12 33 0 17 25 29 183 82 100 33 187 62 192 62 6 0 -14 -16 -43
-36z m428 17 c0 -5 -5 -10 -11 -10 -5 0 -7 5 -4 10 3 6 8 10 11 10 2 0 4 -4 4
-10z m-2581 -56 c10 -9 -35 -3 -49 6 -11 8 -7 9 15 4 17 -4 32 -8 34 -10z m6
-32 c55 -16 138 -37 185 -46 116 -22 158 -36 165 -54 8 -21 -19 -59 -56 -77
-47 -25 -166 -42 -224 -33 -58 10 -57 10 -110 43 -22 14 -65 37 -95 52 -84 43
-102 61 -94 97 14 64 62 68 229 18z m90 7 c14 -6 9 -7 -15 -3 -19 4 -44 11
-55 15 -14 6 -9 7 15 3 19 -4 44 -11 55 -15z m52 -15 c-3 -3 -12 -4 -19 -1 -8
3 -5 6 6 6 11 1 17 -2 13 -5z m46 -11 c-7 -2 -19 -2 -25 0 -7 3 -2 5 12 5 14
0 19 -2 13 -5z m50 -10 c-7 -2 -19 -2 -25 0 -7 3 -2 5 12 5 14 0 19 -2 13 -5z
m1067 -63 c0 -5 -4 -10 -10 -10 -5 0 -10 5 -10 10 0 6 5 10 10 10 6 0 10 -4
10 -10z m369 -16 c-14 -18 -24 -11 -15 11 3 9 11 13 16 10 8 -5 7 -11 -1 -21z
m65 20 c9 -3 16 -13 16 -21 0 -8 -4 -11 -10 -8 -5 3 -10 2 -10 -4 0 -5 5 -13
10 -16 6 -3 10 -15 10 -26 0 -18 -2 -19 -15 -5 -8 8 -15 19 -15 25 0 6 -9 15
-20 21 -37 20 -7 50 34 34z m-768 -31 c12 -17 15 -17 68 1 43 15 59 17 68 8 9
-9 6 -12 -14 -12 -15 0 -33 -6 -40 -12 -7 -7 -28 -14 -47 -16 -19 -1 -40 -7
-47 -13 -15 -12 -29 5 -18 23 4 6 -1 17 -11 25 -18 12 -18 13 4 13 13 0 30 -8
37 -17z m-216 -19 c0 -8 -4 -12 -10 -9 -5 3 -10 10 -10 16 0 5 5 9 10 9 6 0
10 -7 10 -16z m465 6 c13 -6 1 -7 -35 -3 -30 3 -57 7 -59 9 -9 8 75 2 94 -6z
m360 -2 c21 10 23 9 18 -5 -5 -13 -2 -15 15 -11 12 4 22 2 22 -3 0 -4 8 -6 18
-3 11 4 13 3 5 -3 -6 -4 -15 -21 -18 -36 -5 -19 -11 -25 -18 -18 -6 6 -16 6
-29 -2 -15 -10 -21 -9 -28 3 -8 13 -10 13 -10 1 0 -12 -3 -12 -12 -3 -7 7 -25
12 -40 12 -25 0 -28 3 -28 34 0 38 19 49 58 32 15 -6 30 -6 47 2z m-124 -10
c-1 -5 -1 -17 -1 -28 0 -13 -11 -25 -27 -33 -16 -6 -32 -16 -36 -22 -5 -5 -6
1 -2 15 l6 25 -21 -27 c-21 -28 -50 -38 -50 -18 0 6 -9 2 -20 -8 -17 -16 -84
-40 -160 -59 -23 -5 -172 -7 -195 -1 -34 7 -66 28 -60 39 4 5 -4 9 -17 9 -13
0 -18 4 -13 8 20 14 17 35 -5 29 -13 -3 -20 0 -20 9 0 8 10 14 23 14 18 0 19
2 7 10 -21 13 -3 12 36 -2 25 -9 39 -9 56 -1 33 16 101 26 198 29 110 3 264
15 270 20 6 7 31 0 31 -8z m1235 -144 c-4 -9 -9 -15 -11 -12 -3 3 -3 13 1 22
4 9 9 15 11 12 3 -3 3 -13 -1 -22z m11 -36 c-3 -8 -6 -5 -6 6 -1 11 2 17 5 13
3 -3 4 -12 1 -19z m-7 -30 c0 6 5 12 11 12 8 0 8 -5 -1 -15 -13 -16 -30 -11
-30 8 0 7 4 6 10 -3 6 -10 10 -11 10 -2z m-1490 -108 c0 -5 9 -10 20 -10 10 0
24 -9 30 -20 9 -16 8 -20 -5 -20 -8 0 -15 -4 -15 -10 0 -5 6 -10 14 -10 8 0
18 -4 21 -10 4 -7 -3 -7 -20 0 -27 10 -45 6 -45 -11 0 -5 7 -9 15 -9 9 0 15
-9 15 -23 0 -29 -22 -77 -35 -77 -6 0 -15 -10 -20 -22 -6 -13 -24 -26 -45 -31
-19 -5 -38 -14 -42 -20 -5 -8 -13 -8 -30 1 -13 6 -34 12 -48 14 l-25 3 2 104
c3 127 13 148 75 154 89 8 138 7 138 -3z m-1292 -65 c-3 -3 -9 2 -12 12 -6 14
-5 15 5 6 7 -7 10 -15 7 -18z m1392 15 c0 -5 -4 -10 -10 -10 -5 0 -10 5 -10
10 0 6 5 10 10 10 6 0 10 -4 10 -10z m-20 -60 c0 -5 -5 -10 -11 -10 -5 0 -7 5
-4 10 3 6 8 10 11 10 2 0 4 -4 4 -10z m-1265 -10 l20 -9 -20 0 c-11 0 -29 4
-40 9 l-20 9 20 0 c11 0 29 -4 40 -9z"/>
<path d="M4087 3906 c4 -21 11 -26 34 -26 22 0 29 -5 29 -20 0 -11 4 -20 9
-20 7 0 -3 54 -13 76 -1 1 -15 5 -32 8 -30 7 -31 5 -27 -18z"/>
<path d="M3175 3880 c-11 -17 0 -22 55 -28 41 -4 50 -2 50 12 0 12 -9 16 -34
16 -19 0 -41 3 -49 6 -8 3 -18 0 -22 -6z"/>
<path d="M3360 3825 l0 -45 40 0 c22 0 40 5 40 10 0 6 35 11 83 12 45 1 63 3
40 5 -40 4 -43 6 -43 34 0 27 -2 29 -40 29 -29 0 -40 -4 -40 -15 0 -8 -8 -15
-17 -15 -14 0 -15 2 -5 9 11 7 10 10 -3 15 -43 16 -55 8 -55 -39z"/>
<path d="M3180 3815 c0 -14 5 -25 10 -25 6 0 10 -7 10 -15 0 -11 11 -15 40
-15 l40 0 0 40 0 40 -50 0 c-47 0 -50 -2 -50 -25z"/>
<path d="M4240 3829 c0 -5 5 -7 10 -4 6 3 10 8 10 11 0 2 -4 4 -10 4 -5 0 -10
-5 -10 -11z"/>
<path d="M3145 3770 c-3 -5 3 -10 15 -10 12 0 18 5 15 10 -3 6 -10 10 -15 10
-5 0 -12 -4 -15 -10z"/>
<path d="M2110 3636 c0 -2 13 -6 29 -8 17 -2 28 -1 25 4 -5 8 -54 12 -54 4z"/>
<path d="M2195 3630 c-3 -5 -1 -10 4 -10 6 0 11 5 11 10 0 6 -2 10 -4 10 -3 0
-8 -4 -11 -10z"/>
<path d="M2235 3630 c3 -5 8 -10 11 -10 2 0 4 5 4 10 0 6 -5 10 -11 10 -5 0
-7 -4 -4 -10z"/>
<path d="M2560 3585 c0 -11 11 -15 40 -15 36 0 40 -3 40 -24 0 -13 -6 -26 -12
-29 -10 -4 -10 -7 0 -18 10 -11 12 -10 12 4 0 9 7 17 15 17 11 0 15 11 15 40
l0 40 -55 0 c-42 0 -55 -3 -55 -15z"/>
<path d="M4465 3560 c-3 -5 -1 -10 4 -10 6 0 11 5 11 10 0 6 -2 10 -4 10 -3 0
-8 -4 -11 -10z"/>
<path d="M2960 3530 c0 -5 -18 -10 -40 -10 l-40 0 0 -40 0 -40 75 0 75 0 1
-42 c1 -24 4 -34 6 -23 3 11 14 26 24 33 25 17 24 32 -1 32 -17 0 -20 7 -20
50 l0 50 -40 0 c-22 0 -40 -4 -40 -10z"/>
<path d="M2510 3510 c0 -5 7 -10 15 -10 8 0 15 5 15 10 0 6 -7 10 -15 10 -8 0
-15 -4 -15 -10z"/>
<path d="M3560 3420 c0 -13 7 -20 20 -20 13 0 20 7 20 20 0 13 -7 20 -20 20
-13 0 -20 -7 -20 -20z"/>
<path d="M2240 2035 c0 -9 6 -12 15 -9 8 4 15 7 15 9 0 2 -7 5 -15 9 -9 3 -15
0 -15 -9z"/>
<path d="M3390 1792 c0 -14 11 -21 26 -15 8 3 11 9 8 14 -7 11 -34 12 -34 1z"/>
<path d="M3360 1440 c0 -5 7 -10 16 -10 8 0 12 5 9 10 -3 6 -10 10 -16 10 -5
0 -9 -4 -9 -10z"/>
<path d="M3620 970 c0 -5 5 -10 11 -10 5 0 7 5 4 10 -3 6 -8 10 -11 10 -2 0
-4 -4 -4 -10z"/>
<path d="M3288 5083 c-10 -2 -18 -11 -18 -19 0 -18 36 -10 60 12 12 12 12 14
-5 13 -11 -1 -28 -3 -37 -6z"/>
<path d="M3105 5050 c-18 -8 -17 -9 8 -9 16 -1 26 3 22 9 -3 6 -7 10 -8 9 -1
0 -11 -4 -22 -9z"/>
<path d="M3423 4937 c-3 -5 -21 -7 -39 -4 -19 3 -34 2 -34 -4 0 -5 7 -9 15 -9
8 0 15 -4 15 -10 0 -5 -5 -10 -12 -10 -6 0 -8 -3 -5 -6 9 -9 92 24 107 42 10
12 8 14 -15 12 -14 -1 -29 -6 -32 -11z"/>
<path d="M2850 4933 c0 -13 36 -32 78 -41 31 -7 39 -6 39 5 0 8 -10 18 -21 22
-36 14 -96 22 -96 14z"/>
<path d="M3228 4893 c-4 -15 3 -18 41 -20 32 -2 40 0 26 6 -11 5 -26 6 -32 4
-7 -3 -13 2 -13 11 0 22 -17 20 -22 -1z"/>
<path d="M3335 4890 c-3 -5 -1 -10 4 -10 6 0 11 5 11 10 0 6 -2 10 -4 10 -3 0
-8 -4 -11 -10z"/>
<path d="M2877 4864 c3 -7 20 -18 39 -24 19 -6 34 -16 34 -21 0 -15 40 -10 46
6 8 21 32 19 46 -5 10 -15 24 -20 60 -20 26 0 50 5 53 10 3 6 15 10 26 10 10
0 19 -4 19 -10 0 -20 55 -10 72 14 l17 23 -82 1 c-161 1 -160 1 -153 17 3 8 1
15 -4 15 -6 0 -10 -7 -10 -15 0 -8 -1 -15 -2 -15 -2 0 -40 6 -85 14 -66 11
-80 11 -76 0z"/>
<path d="M3313 4845 c-9 -25 2 -27 41 -11 45 19 46 26 1 26 -23 0 -38 -6 -42
-15z"/>
<path d="M4750 4834 l-25 -15 25 7 c14 3 29 10 35 15 15 14 -7 10 -35 -7z"/>
<path d="M4538 4773 c7 -3 16 -2 19 1 4 3 -2 6 -13 5 -11 0 -14 -3 -6 -6z"/>
<path d="M4538 4743 c7 -3 16 -2 19 1 4 3 -2 6 -13 5 -11 0 -14 -3 -6 -6z"/>
<path d="M2010 4720 c8 -5 20 -10 25 -10 6 0 3 5 -5 10 -8 5 -19 10 -25 10 -5
0 -3 -5 5 -10z"/>
<path d="M2111 4704 c0 -11 3 -14 6 -6 3 7 2 16 -1 19 -3 4 -6 -2 -5 -13z"/>
<path d="M2130 4700 c0 -11 4 -20 9 -20 5 0 7 9 4 20 -3 11 -7 20 -9 20 -2 0
-4 -9 -4 -20z"/>
<path d="M5212 4050 c0 -14 2 -19 5 -12 2 6 2 18 0 25 -3 6 -5 1 -5 -13z"/>
<path d="M1195 2610 c3 -5 8 -10 11 -10 2 0 4 5 4 10 0 6 -5 10 -11 10 -5 0
-7 -4 -4 -10z"/>
<path d="M1196 2517 c3 -10 9 -15 12 -12 3 3 0 11 -7 18 -10 9 -11 8 -5 -6z"/>
<path d="M4877 2433 c-4 -3 -7 -11 -7 -17 0 -6 5 -5 12 2 6 6 9 14 7 17 -3 3
-9 2 -12 -2z"/>
<path d="M4825 2400 c3 -5 11 -10 16 -10 6 0 7 5 4 10 -3 6 -11 10 -16 10 -6
0 -7 -4 -4 -10z"/>
<path d="M4748 2351 c-30 -17 -36 -31 -15 -31 14 0 54 37 46 43 -2 2 -16 -3
-31 -12z"/>
<path d="M4774 2255 c-19 -14 -18 -14 4 -15 13 0 22 6 22 15 0 19 -1 19 -26 0z"/>
<path d="M4720 1744 c0 -14 3 -14 15 -4 8 7 15 14 15 16 0 2 -7 4 -15 4 -8 0
-15 -7 -15 -16z"/>
<path d="M4702 1668 c6 -18 28 -21 28 -4 0 9 -7 16 -16 16 -9 0 -14 -5 -12
-12z"/>
<path d="M4665 1610 c-3 -5 -1 -10 4 -10 6 0 11 5 11 10 0 6 -2 10 -4 10 -3 0
-8 -4 -11 -10z"/>
<path d="M4520 1490 c0 -5 9 -10 20 -10 11 0 20 5 20 10 0 6 -9 10 -20 10 -11
0 -20 -4 -20 -10z"/>
<path d="M5019 1458 c0 -1 -2 -12 -4 -23 -1 -11 -10 -42 -19 -70 -22 -68 -38
-174 -31 -202 5 -20 9 -22 25 -13 27 14 48 68 45 113 -2 22 1 35 6 31 6 -3 9
26 7 77 -2 55 -7 84 -15 87 -7 2 -13 2 -14 0z"/>
<path d="M4785 1130 c-3 -5 -1 -10 4 -10 6 0 11 5 11 10 0 6 -2 10 -4 10 -3 0
-8 -4 -11 -10z"/>
<path d="M4972 1000 c0 -14 2 -19 5 -12 2 6 2 18 0 25 -3 6 -5 1 -5 -13z"/>
<path d="M4960 931 c0 -6 5 -13 10 -16 6 -3 10 1 10 9 0 9 -4 16 -10 16 -5 0
-10 -4 -10 -9z"/>
<path d="M4997 933 c-4 -3 -7 -13 -7 -22 1 -13 3 -13 11 2 11 19 8 33 -4 20z"/>
<path d="M4955 882 c-9 -9 -5 -32 5 -32 5 0 6 7 3 17 -4 10 -2 14 5 9 6 -3 13
-3 16 2 5 9 -20 12 -29 4z"/>
</g>
</svg>
