<?xml version="1.0" encoding="utf-8"?>
<!-- Generator: Adobe Illustrator 25.4.1, SVG Export Plug-In . SVG Version: 6.00 Build 0)  -->
<svg version="1.1" id="Layer_1" xmlns="http://www.w3.org/2000/svg" xmlns:xlink="http://www.w3.org/1999/xlink" x="0px" y="0px"
	 viewBox="0 0 69.43 68" style="enable-background:new 0 0 69.43 68;" xml:space="preserve">
<style type="text/css">
	.st0{fill:#00FF00;}
	.st1{fill:#C7C7C9;}
	.st2{font-family:'FranklinGothic-Medium';}
	.st3{font-size:8px;}
	.st4{fill:#7C7C7C;}
	.st5{fill:#737373;}
	.st6{fill:#00FF00;stroke:#00FF00;stroke-width:0.45;stroke-miterlimit:10;}
	.st7{fill:#FFD700;}
</style>
<g id="XMLID_00000074438847326914488800000007933000065832629892_">
	<g id="XMLID_00000060024456803417745300000016500620518538805430_">
		<path id="XMLID_00000155844439443568430360000001356177118231883666_" class="st0" d="M34.87,11.4
			c7.77-0.02,14.68,6.55,14.33,15.06c-0.34,8.21-7.27,14.37-15.38,13.9c-7.79-0.46-13.94-7.15-13.59-15.08
			C20.6,17.12,27.39,11.27,34.87,11.4z M43.52,34.99c3.17-2.97,5.12-8.32,3.01-13.7c-1.98-5.05-6.93-8.56-12.92-8.05
			c-6.14,0.53-10.59,5.22-11.43,10.68c-0.44,2.82,0.04,5.5,1.38,8.01c0.57,1.07,1.29,2.03,2.19,2.91c0.94-2.64,2.62-4.56,5.15-5.67
			c2.53-1.11,5.09-1.09,7.59,0.07C40.98,30.41,42.64,32.36,43.52,34.99z"/>
		<path id="XMLID_00000016767320462012937850000013635300962342175921_" class="st0" d="M34.6,26.84c-2.2,0.17-4.88-1.65-5.32-4.49
			c-0.45-2.95,1.33-5.44,3.97-6.12c1.64-0.43,3.19-0.14,4.56,0.88c1.58,1.18,2.28,2.79,2.19,4.75c-0.09,2.04-1.6,4.31-4.29,4.9
			C35.35,26.83,34.97,26.81,34.6,26.84z"/>
	</g>
	
		<text id="XMLID_00000026880951281471132390000005658312802301687680_" transform="matrix(1 0 0 1 17.4315 51.4724)" class="st1 st2 st3">ACCOUNT</text>
</g>
</svg>
