<?xml version="1.0" encoding="utf-8"?>
<!-- Generator: Adobe Illustrator 25.4.1, SVG Export Plug-In . SVG Version: 6.00 Build 0)  -->
<svg version="1.1" id="Layer_1" xmlns="http://www.w3.org/2000/svg" xmlns:xlink="http://www.w3.org/1999/xlink" x="0px" y="0px"
	 viewBox="0 0 33.65 64.5" style="enable-background:new 0 0 33.65 64.5;" xml:space="preserve">
<style type="text/css">
	.st0{fill:#231709;}
	.st1{opacity:0.17;fill:url(#XMLID_00000140010296242833126340000006990876634591531695_);}
	.st2{fill:url(#XMLID_00000021822376845155176430000001649465338999449231_);}
	.st3{fill:url(#XMLID_00000152235388973114502170000015819085715599617187_);}
	.st4{fill:url(#XMLID_00000123400985412047858300000015345679288012575360_);}
	.st5{fill:#FFD700;}
	.st6{fill:#7C7C7C;}
	.st7{fill:#737373;}
	.st8{fill:#00FF00;}
	.st9{fill:#C7C7C9;}
	.st10{clip-path:url(#XMLID_00000057866726025000885680000015881551947123364515_);}
	.st11{clip-path:url(#XMLID_00000078046114470993553170000006646843594521415060_);}
	.st12{clip-path:url(#XMLID_00000130612829611373205660000009976277305414641587_);}
	
		.st13{clip-path:url(#XMLID_00000078046114470993553170000006646843594521415060_);fill-rule:evenodd;clip-rule:evenodd;fill:#457028;}
	
		.st14{clip-path:url(#XMLID_00000078046114470993553170000006646843594521415060_);fill-rule:evenodd;clip-rule:evenodd;fill:#1C2012;}
	
		.st15{clip-path:url(#XMLID_00000078046114470993553170000006646843594521415060_);fill-rule:evenodd;clip-rule:evenodd;fill:#4C6C3A;}
	
		.st16{clip-path:url(#XMLID_00000103265882308445393320000010612064531353752510_);fill:url(#XMLID_00000080906543877968875120000009108771271039890102_);}
	
		.st17{clip-path:url(#XMLID_00000075126098930858001090000013029429483862454176_);fill:url(#XMLID_00000088127566968712621390000017505800783339339137_);}
	
		.st18{clip-path:url(#XMLID_00000069369283707465780890000010118868981801314193_);fill:url(#XMLID_00000111910619182440679130000014795401947007182220_);}
	
		.st19{clip-path:url(#XMLID_00000080928320829341762420000000552479455455724989_);fill:url(#XMLID_00000128486215439747411190000005781076521379779992_);}
	.st20{fill:none;stroke:#231709;stroke-width:0.1;stroke-miterlimit:10;}
	.st21{fill:#00FF00;stroke:#00FF00;stroke-width:0.45;stroke-miterlimit:10;}
	.st22{opacity:0.12;}
	.st23{opacity:0.56;fill:#231709;}
	.st24{fill:#00FF00;stroke:#231709;stroke-width:2;stroke-miterlimit:10;}
	.st25{opacity:0.77;}
	.st26{fill:url(#XMLID_00000158022861797138976860000018138591289025811074_);}
	.st27{fill:url(#SVGID_1_);}
	.st28{fill:url(#SVGID_00000176729027288925524160000011517719686030358159_);}
	.st29{clip-path:url(#XMLID_00000095339224738803547480000017962900775688293021_);}
	.st30{clip-path:url(#XMLID_00000016777344657395350850000005652516379856236456_);}
	.st31{clip-path:url(#XMLID_00000075860225239579730070000008237852555517506944_);}
	
		.st32{clip-path:url(#XMLID_00000016777344657395350850000005652516379856236456_);fill-rule:evenodd;clip-rule:evenodd;fill:#457028;}
	
		.st33{clip-path:url(#XMLID_00000016777344657395350850000005652516379856236456_);fill-rule:evenodd;clip-rule:evenodd;fill:#1C2012;}
	
		.st34{clip-path:url(#XMLID_00000016777344657395350850000005652516379856236456_);fill-rule:evenodd;clip-rule:evenodd;fill:#4C6C3A;}
	
		.st35{clip-path:url(#XMLID_00000158709299171943016740000005895205409831577738_);fill:url(#XMLID_00000126296885746165750810000004323266128364360870_);}
	
		.st36{clip-path:url(#XMLID_00000075866915557681410610000008256136856743454120_);fill:url(#XMLID_00000122699555331654233200000007589337282356220350_);}
	
		.st37{clip-path:url(#XMLID_00000012449201471449982630000013082677476740020156_);fill:url(#XMLID_00000109018936367165842390000004700017338201320591_);}
	
		.st38{clip-path:url(#XMLID_00000129919832123102226140000001081555931690568618_);fill:url(#XMLID_00000163046318238491183240000015590065999429025682_);}
	.st39{fill:none;stroke:#231709;stroke-width:0.23;stroke-miterlimit:10;}
	.st40{fill:#231700;stroke:#231709;stroke-width:0.3;stroke-miterlimit:10;}
	
		.st41{fill:url(#XMLID_00000183238888729459803300000018118245427024450443_);stroke:#231709;stroke-width:0.3;stroke-miterlimit:10;}
	
		.st42{fill:url(#SVGID_00000145764556610357855960000007100593611247776908_);stroke:#231709;stroke-width:0.3;stroke-miterlimit:10;}
	
		.st43{fill:url(#XMLID_00000093164012807404669710000016824524719078775186_);stroke:#231709;stroke-width:0.3;stroke-miterlimit:10;}
	
		.st44{fill:url(#XMLID_00000166646900968467325050000008136443007390764184_);stroke:#231709;stroke-width:0.3;stroke-miterlimit:10;}
	
		.st45{fill:url(#XMLID_00000096053837089342489130000011592286621583776701_);stroke:#231709;stroke-width:0.3;stroke-miterlimit:10;}
	
		.st46{fill:url(#SVGID_00000026861037525382370220000004875993900873053059_);stroke:#231709;stroke-width:0.3;stroke-miterlimit:10;}
	
		.st47{fill:url(#XMLID_00000131342616989305342680000009357848737883845036_);stroke:#231709;stroke-width:0.3;stroke-miterlimit:10;}
	
		.st48{fill:url(#SVGID_00000114054937165923925090000002367334800491342473_);stroke:#231709;stroke-width:0.3;stroke-miterlimit:10;}
	.st49{fill:#FFD700;stroke:#00FF00;stroke-miterlimit:10;}
	
		.st50{fill:url(#XMLID_00000111885941652687313700000014102327301072769722_);stroke:#231709;stroke-width:0.3;stroke-miterlimit:10;}
	
		.st51{fill:url(#XMLID_00000138565314199548789740000002955344394970535340_);stroke:#231709;stroke-width:0.3;stroke-miterlimit:10;}
	
		.st52{fill:url(#XMLID_00000026144057846056233000000002934999594212457381_);stroke:#231709;stroke-width:0.3;stroke-miterlimit:10;}
	.st53{clip-path:url(#XMLID_00000168831712525967273180000005779238162232812216_);}
	.st54{clip-path:url(#XMLID_00000084515277381951255520000005769613495013120944_);}
	.st55{clip-path:url(#XMLID_00000081625148641578563910000010495634429450763454_);}
	
		.st56{clip-path:url(#XMLID_00000084515277381951255520000005769613495013120944_);fill-rule:evenodd;clip-rule:evenodd;fill:#457028;}
	
		.st57{clip-path:url(#XMLID_00000084515277381951255520000005769613495013120944_);fill-rule:evenodd;clip-rule:evenodd;fill:#1C2012;}
	
		.st58{clip-path:url(#XMLID_00000084515277381951255520000005769613495013120944_);fill-rule:evenodd;clip-rule:evenodd;fill:#4C6C3A;}
	
		.st59{clip-path:url(#XMLID_00000163071863663174459940000010674750408344189343_);fill:url(#XMLID_00000159446216563254024830000012022502343924830900_);}
	
		.st60{clip-path:url(#XMLID_00000104693084182909441820000002128033733275320479_);fill:url(#XMLID_00000111881719765330265620000001381578761441413013_);}
	
		.st61{clip-path:url(#XMLID_00000124878350886894875220000012922740723666991521_);fill:url(#XMLID_00000103252492544963399730000014343277934908278706_);}
	
		.st62{clip-path:url(#XMLID_00000163780045328958696760000013395493278760220042_);fill:url(#XMLID_00000021800174172089804470000002301795996525241256_);}
	.st63{fill:#457028;}
	.st64{opacity:0.37;fill:#FAFFFA;stroke:#231709;stroke-miterlimit:10;}
	
		.st65{fill:url(#XMLID_00000076582455517816776370000002107072395848792974_);stroke:#231709;stroke-width:0.3;stroke-miterlimit:10;}
	
		.st66{fill:url(#XMLID_00000143616867506359596250000003491040506594124677_);stroke:#231709;stroke-width:0.3;stroke-miterlimit:10;}
	.st67{opacity:0.25;fill:#FAFFFA;stroke:#231709;stroke-miterlimit:10;}
	
		.st68{fill:url(#XMLID_00000097495057907763134700000000383533154499598494_);stroke:#231709;stroke-width:0.3;stroke-miterlimit:10;}
	
		.st69{fill:url(#XMLID_00000165232586375849671680000009595188515165546664_);stroke:#231709;stroke-width:0.3;stroke-miterlimit:10;}
	
		.st70{fill:url(#XMLID_00000101813092785465344350000005560607182791816633_);stroke:#231709;stroke-width:0.3;stroke-miterlimit:10;}
	
		.st71{fill:url(#XMLID_00000018207038148453359370000011008575789071913357_);stroke:#231709;stroke-width:0.3;stroke-miterlimit:10;}
	
		.st72{fill:url(#XMLID_00000069366868880986099800000012009758293983046542_);stroke:#231709;stroke-width:0.3;stroke-miterlimit:10;}
	
		.st73{fill:url(#XMLID_00000155844701135666873140000007801170442476332946_);stroke:#231709;stroke-width:0.3;stroke-miterlimit:10;}
	.st74{fill:url(#XMLID_00000074429050762838935330000016300774719043140746_);}
	.st75{fill:url(#SVGID_00000006689783382272954280000001364588576040883645_);}
	.st76{fill:url(#SVGID_00000154394679360417701890000007737640862265516981_);}
	.st77{fill:#FFFFFF;stroke:#00FF00;stroke-miterlimit:10;}
	
		.st78{fill:url(#XMLID_00000162329960271667742470000015863382614243782545_);stroke:#231709;stroke-width:0.3;stroke-miterlimit:10;}
	
		.st79{fill:url(#XMLID_00000118360314349514664380000015673204097948351880_);stroke:#231709;stroke-width:0.3;stroke-miterlimit:10;}
	
		.st80{fill:url(#XMLID_00000023270259262042228270000006165525896948510626_);stroke:#231709;stroke-width:0.3;stroke-miterlimit:10;}
	
		.st81{fill:url(#XMLID_00000158748479696359731310000017779114701965233805_);stroke:#231709;stroke-width:0.3;stroke-miterlimit:10;}
	
		.st82{fill:url(#XMLID_00000112602664167952637220000009944857117791992483_);stroke:#231709;stroke-width:0.3;stroke-miterlimit:10;}
	
		.st83{fill:url(#XMLID_00000135661498774171027140000010756673649972596396_);stroke:#231709;stroke-width:0.3;stroke-miterlimit:10;}
	
		.st84{fill:url(#XMLID_00000102511298056168902270000008110707294891407800_);stroke:#231709;stroke-width:0.3;stroke-miterlimit:10;}
	
		.st85{fill:url(#XMLID_00000049925629796646895230000017869034884066707339_);stroke:#231709;stroke-width:0.3;stroke-miterlimit:10;}
	
		.st86{fill:url(#XMLID_00000166649096390575956500000009275620272009053340_);stroke:#231709;stroke-width:0.3;stroke-miterlimit:10;}
	
		.st87{fill:url(#XMLID_00000178165969329352591320000011559314175942120335_);stroke:#231709;stroke-width:0.3;stroke-miterlimit:10;}
	
		.st88{fill:url(#SVGID_00000003786051745638001520000004583304173395383226_);stroke:#231709;stroke-width:0.3;stroke-miterlimit:10;}
	
		.st89{fill:url(#XMLID_00000048491032139930187310000009976354006219278267_);stroke:#231709;stroke-width:0.3;stroke-miterlimit:10;}
	
		.st90{fill:url(#SVGID_00000108310312322592408680000005911157239717865890_);stroke:#231709;stroke-width:0.3;stroke-miterlimit:10;}
	
		.st91{fill:url(#XMLID_00000137126203735404958290000015860279765218254268_);stroke:#231709;stroke-width:0.3;stroke-miterlimit:10;}
	
		.st92{fill:url(#SVGID_00000072982453078949712580000008958792906930757536_);stroke:#231709;stroke-width:0.3;stroke-miterlimit:10;}
	
		.st93{fill:url(#XMLID_00000105387439565634025590000004292067905908437930_);stroke:#231709;stroke-width:0.3;stroke-miterlimit:10;}
	
		.st94{fill:url(#XMLID_00000132775553701606987560000003656212124494509245_);stroke:#231709;stroke-width:0.3;stroke-miterlimit:10;}
	
		.st95{fill:url(#XMLID_00000177476262535119609450000003483403898246111137_);stroke:#231709;stroke-width:0.3;stroke-miterlimit:10;}
	
		.st96{fill:url(#XMLID_00000088094439503398118610000015658591073001565091_);stroke:#231709;stroke-width:0.3;stroke-miterlimit:10;}
</style>
<g id="XMLID_3699_">
	<path id="XMLID_3700_" class="st40" d="M23.83,57.25c0,0.48,0.01,0.95,0,1.42c-0.01,0.8-0.36,1.15-1.16,1.15
		c-3.34,0-6.67,0-10.01,0c-0.76,0-1.13-0.36-1.14-1.12c-0.01-0.47,0-0.93,0-1.32c-0.77-0.38-1.54-0.65-2.19-1.1
		c-1.7-1.15-2.58-2.81-2.59-4.87c-0.02-4.5-0.01-31.3-0.01-35.8c0-3.11,2.14-5.55,5.22-5.98c0.14-0.02,0.28-0.05,0.48-0.08
		c0-1.05,0.01-2.09-0.01-3.13c0-0.08-0.17-0.2-0.29-0.23c-0.67-0.23-1.03-0.77-0.95-1.44c0.08-0.64,0.6-1.09,1.32-1.09
		c3.43-0.01,6.87-0.01,10.3,0c0.72,0,1.25,0.44,1.34,1.07c0.1,0.69-0.26,1.21-0.97,1.47c-0.11,0.04-0.27,0.2-0.27,0.3
		c-0.02,1.01-0.01,2.03-0.01,3.05c0.4,0.07,0.76,0.12,1.12,0.2c2.68,0.63,4.57,2.99,4.58,5.74c0.01,4.48,0.01,31.27,0,35.75
		c0,2.9-1.69,5.12-4.48,5.93C24.05,57.18,23.98,57.2,23.83,57.25z M7.74,16.33c0,3.95,0,30.14,0,34.03c6.65,0,13.26,0,19.87,0
		c0-3.94,0-30.13,0-34.03C20.97,16.33,14.37,16.33,7.74,16.33z M7.69,51.4c0.03,0.3,0.03,0.55,0.07,0.78
		c0.45,2.51,2.43,4.18,5.03,4.2c3.29,0.02,6.57,0.01,9.86,0c1.4,0,2.62-0.51,3.59-1.52c0.92-0.95,1.4-2.09,1.4-3.46
		C20.98,51.4,14.37,51.4,7.69,51.4z M27.62,15.32c0-0.15,0.01-0.28,0-0.4c-0.28-2.42-2.39-4.36-4.83-4.38c-3.4-0.03-6.8-0.02-10.2,0
		c-1.39,0.01-2.57,0.55-3.52,1.56c-0.85,0.89-1.32,1.95-1.36,3.23C14.37,15.32,20.98,15.32,27.62,15.32z M17.17,8
		c-0.27,0-0.48,0-0.69,0C16.17,8,15.94,7.87,15.93,7.53c0-0.34,0.21-0.49,0.53-0.49c0.79,0,1.58,0,2.37,0
		c0.33,0,0.57,0.18,0.51,0.49c-0.04,0.18-0.29,0.37-0.5,0.46C18.65,8.06,18.41,8,18.19,8c0,0.56,0,1.05,0,1.52c1.27,0,2.5,0,3.72,0
		c0-1.12,0-2.19,0-3.28c-2.84,0-5.65,0-8.47,0c0,1.12,0,2.2,0,3.29c1.26,0,2.49,0,3.73,0C17.17,9.01,17.17,8.54,17.17,8z
		 M17.62,5.26c1.63,0,3.25,0,4.88,0c0.14,0,0.31,0.03,0.43-0.03c0.12-0.06,0.24-0.21,0.25-0.34c0.01-0.08-0.15-0.22-0.27-0.27
		C22.8,4.57,22.66,4.6,22.53,4.6c-3.25,0-6.5,0-9.75,0c-0.13,0-0.27-0.02-0.38,0.03c-0.1,0.04-0.23,0.17-0.23,0.25
		c0,0.12,0.1,0.28,0.2,0.33c0.13,0.06,0.31,0.05,0.47,0.05C14.43,5.26,16.03,5.26,17.62,5.26z M17.18,57.37c-1.59,0-3.12,0-4.66,0
		c0,0.51,0,0.98,0,1.43c1.58,0,3.12,0,4.66,0C17.18,58.32,17.18,57.87,17.18,57.37z M22.85,57.38c-1.59,0-3.13,0-4.66,0
		c0,0.5,0,0.96,0,1.47c1.47,0,2.92,0,4.37,0c0.09,0,0.18-0.02,0.3-0.03C22.85,58.33,22.85,57.87,22.85,57.38z"/>
	<path id="XMLID_3709_" class="st21" d="M17.69,38.77c-2.52,0.01-4.18-2.68-2.98-4.91c0.69-1.27,1.5-2.47,2.28-3.69
		c0.37-0.57,1.02-0.56,1.39,0.03c0.75,1.17,1.52,2.32,2.19,3.53C21.86,36,20.26,38.75,17.69,38.77z M17.67,31.34
		c-0.67,1.08-1.32,2.05-1.88,3.06c-0.52,0.94-0.21,2.11,0.62,2.75c0.73,0.56,1.84,0.55,2.56-0.03c0.82-0.65,1.09-1.82,0.56-2.76
		C18.98,33.37,18.34,32.42,17.67,31.34z"/>
	<path id="XMLID_3712_" class="st5" d="M17.67,31.34c0.67,1.07,1.3,2.02,1.86,3.01c0.53,0.94,0.26,2.11-0.56,2.76
		c-0.72,0.58-1.83,0.59-2.56,0.03c-0.83-0.64-1.14-1.81-0.62-2.75C16.35,33.39,17,32.43,17.67,31.34z"/>
</g>
</svg>
