<?xml version="1.0" encoding="utf-8"?>
<!-- Generator: Adobe Illustrator 25.4.1, SVG Export Plug-In . SVG Version: 6.00 Build 0)  -->
<svg version="1.1" id="Layer_1" xmlns="http://www.w3.org/2000/svg" xmlns:xlink="http://www.w3.org/1999/xlink" x="0px" y="0px"
	 viewBox="0 0 68.39 68" style="enable-background:new 0 0 68.39 68;" xml:space="preserve">
<style type="text/css">
	.st0{fill:#00FF00;}
	.st1{fill:#7C7C7C;}
	.st2{fill:#737373;}
	.st3{fill:#C7C7C9;}
	.st4{font-family:'FranklinGothic-Medium';}
	.st5{font-size:8px;}
	.st6{fill:#00FF00;stroke:#00FF00;stroke-width:0.45;stroke-miterlimit:10;}
	.st7{fill:#FFD700;}
</style>
<g>
	<text id="XMLID_466_" transform="matrix(1 0 0 1 15.7501 51.4724)" class="st3 st4 st5">CYLINDER</text>
	<path id="XMLID_528_" class="st6" d="M39.06,38.01c0,0.38,0,0.75,0,1.12c-0.01,0.63-0.29,0.91-0.91,0.91c-2.64,0-5.28,0-7.91,0
		c-0.6,0-0.89-0.29-0.9-0.89c-0.01-0.37,0-0.74,0-1.04c-0.61-0.3-1.21-0.52-1.73-0.87c-1.35-0.91-2.04-2.22-2.05-3.85
		c-0.02-3.56-0.01-9.3,0-12.86c0-2.46,1.69-4.39,4.13-4.73c0.11-0.02,0.22-0.04,0.38-0.07c0-0.83,0.01-1.65-0.01-2.47
		c0-0.06-0.14-0.15-0.23-0.19c-0.53-0.18-0.82-0.61-0.75-1.14c0.06-0.51,0.48-0.86,1.05-0.86c2.71,0,5.43,0,8.14,0
		c0.57,0,0.99,0.34,1.06,0.85c0.08,0.55-0.2,0.96-0.77,1.16c-0.09,0.03-0.21,0.16-0.21,0.24c-0.02,0.8-0.01,1.6-0.01,2.41
		c0.31,0.06,0.6,0.09,0.88,0.16c2.12,0.5,3.62,2.36,3.62,4.54c0.01,3.54,0.01,9.28,0,12.82c0,2.29-1.34,4.05-3.54,4.69
		C39.24,37.96,39.18,37.98,39.06,38.01z M26.34,21.1c0,3.12,0,8.39,0,11.47c5.26,0,10.49,0,15.71,0c0-3.11,0-8.38,0-11.47
		C36.8,21.1,31.58,21.1,26.34,21.1z M26.3,33.39c0.02,0.24,0.02,0.43,0.06,0.62c0.36,1.98,1.92,3.31,3.98,3.32
		c2.6,0.02,5.2,0.01,7.79,0c1.11,0,2.07-0.4,2.84-1.2c0.72-0.75,1.1-1.65,1.11-2.73C36.81,33.39,31.58,33.39,26.3,33.39z
		 M42.06,20.3c0-0.12,0.01-0.22,0-0.32c-0.22-1.91-1.89-3.45-3.81-3.46c-2.69-0.02-5.37-0.02-8.06,0c-1.1,0.01-2.03,0.44-2.79,1.23
		c-0.67,0.71-1.04,1.54-1.07,2.55C31.59,20.3,36.81,20.3,42.06,20.3z M33.8,14.52c-0.21,0-0.38,0-0.54,0c-0.25,0-0.43-0.1-0.44-0.37
		c0-0.27,0.16-0.39,0.42-0.39c0.62,0,1.25,0,1.87,0c0.26,0,0.45,0.14,0.4,0.39c-0.03,0.15-0.23,0.29-0.39,0.36
		c-0.15,0.06-0.34,0.01-0.51,0.01c0,0.44,0,0.83,0,1.2c1,0,1.98,0,2.94,0c0-0.88,0-1.73,0-2.6c-2.25,0-4.47,0-6.7,0
		c0,0.88,0,1.74,0,2.6c1,0,1.97,0,2.95,0C33.8,15.32,33.8,14.94,33.8,14.52z M34.15,12.35c1.29,0,2.57,0,3.86,0
		c0.11,0,0.25,0.02,0.34-0.02c0.09-0.05,0.19-0.17,0.2-0.27c0.01-0.06-0.12-0.17-0.21-0.21c-0.09-0.04-0.2-0.02-0.3-0.02
		c-2.57,0-5.14,0-7.71,0c-0.1,0-0.21-0.02-0.3,0.02c-0.08,0.03-0.18,0.13-0.18,0.2c0,0.09,0.08,0.22,0.16,0.26
		c0.11,0.05,0.25,0.04,0.37,0.04C31.63,12.35,32.89,12.35,34.15,12.35z M33.8,38.11c-1.25,0-2.47,0-3.68,0c0,0.4,0,0.78,0,1.13
		c1.25,0,2.46,0,3.68,0C33.8,38.85,33.8,38.5,33.8,38.11z M38.29,38.11c-1.26,0-2.47,0-3.69,0c0,0.4,0,0.76,0,1.16
		c1.17,0,2.31,0,3.45,0c0.07,0,0.15-0.02,0.24-0.03C38.29,38.86,38.29,38.5,38.29,38.11z"/>
	<path id="XMLID_537_" class="st6" d="M34.21,30.7c-1.99,0.01-3.31-2.12-2.36-3.88c0.54-1,1.18-1.96,1.8-2.92
		c0.29-0.45,0.8-0.44,1.1,0.02c0.59,0.92,1.2,1.84,1.73,2.79C37.5,28.51,36.24,30.69,34.21,30.7z M34.2,24.83
		c-0.53,0.86-1.04,1.62-1.49,2.42c-0.41,0.74-0.17,1.67,0.49,2.17c0.58,0.44,1.45,0.43,2.03-0.02c0.65-0.52,0.86-1.44,0.44-2.18
		C35.23,26.43,34.73,25.68,34.2,24.83z"/>
	<path id="XMLID_540_" class="st7" d="M34.2,24.83c0.53,0.85,1.03,1.6,1.47,2.38c0.42,0.74,0.2,1.67-0.44,2.18
		c-0.57,0.46-1.45,0.47-2.03,0.02c-0.66-0.5-0.9-1.43-0.49-2.17C33.15,26.45,33.67,25.68,34.2,24.83z"/>
</g>
</svg>
