<?xml version="1.0" encoding="utf-8"?>
<!-- Generator: Adobe Illustrator 25.4.1, SVG Export Plug-In . SVG Version: 6.00 Build 0)  -->
<svg version="1.1" id="Layer_1" xmlns="http://www.w3.org/2000/svg" xmlns:xlink="http://www.w3.org/1999/xlink" x="0px" y="0px"
	 viewBox="0 0 30.32 47.34" style="enable-background:new 0 0 30.32 47.34;" xml:space="preserve">
<style type="text/css">
	.st0{fill:#231709;}
	.st1{opacity:0.17;fill:url(#XMLID_00000049918898650685416780000007347955706212260024_);}
	.st2{fill:url(#XMLID_00000044142446848683545250000008820393304467965616_);}
	.st3{fill:url(#XMLID_00000070814715901824808520000012697133926504254626_);}
	.st4{fill:url(#XMLID_00000065787496769868314700000003083791697507894207_);}
	.st5{fill:#FFD700;}
	.st6{fill:#7C7C7C;}
	.st7{fill:#737373;}
	.st8{fill:#00FF00;}
	.st9{fill:#C7C7C9;}
	.st10{clip-path:url(#XMLID_00000147178466514864472820000003866389450215617924_);}
	.st11{clip-path:url(#XMLID_00000094609752912171901920000012279870189077172157_);}
	.st12{clip-path:url(#XMLID_00000016767326546130790480000009092625842317171883_);}
	
		.st13{clip-path:url(#XMLID_00000094609752912171901920000012279870189077172157_);fill-rule:evenodd;clip-rule:evenodd;fill:#457028;}
	
		.st14{clip-path:url(#XMLID_00000094609752912171901920000012279870189077172157_);fill-rule:evenodd;clip-rule:evenodd;fill:#1C2012;}
	
		.st15{clip-path:url(#XMLID_00000094609752912171901920000012279870189077172157_);fill-rule:evenodd;clip-rule:evenodd;fill:#4C6C3A;}
	
		.st16{clip-path:url(#XMLID_00000095302051948096492630000008311271979269136022_);fill:url(#XMLID_00000068644797407611713260000014904668501589799359_);}
	
		.st17{clip-path:url(#XMLID_00000086652657872340359040000001092251503425652665_);fill:url(#XMLID_00000016077539547106395310000002322642815268814741_);}
	
		.st18{clip-path:url(#XMLID_00000071519293864664615280000017580619993200964515_);fill:url(#XMLID_00000083781716783098082670000012197368381252180893_);}
	
		.st19{clip-path:url(#XMLID_00000139257601947192103580000008232310557208611982_);fill:url(#XMLID_00000163067995016260949820000009426801838979594880_);}
	.st20{fill:none;stroke:#231709;stroke-width:0.1;stroke-miterlimit:10;}
	.st21{fill:#00FF00;stroke:#00FF00;stroke-width:0.45;stroke-miterlimit:10;}
	.st22{opacity:0.12;}
	.st23{opacity:0.56;fill:#231709;}
	.st24{fill:#00FF00;stroke:#231709;stroke-width:2;stroke-miterlimit:10;}
	.st25{opacity:0.77;}
	.st26{fill:url(#XMLID_00000027604549983537413670000014495634514247592325_);}
	.st27{fill:url(#SVGID_1_);}
	.st28{fill:url(#SVGID_00000023987048385554120570000004133141035968782527_);}
	.st29{clip-path:url(#XMLID_00000094616541247845722620000001649445523647572387_);}
	.st30{clip-path:url(#XMLID_00000003084612082812855140000009528930926115943569_);}
	.st31{clip-path:url(#XMLID_00000146497872007586864280000009982675401329959601_);}
	
		.st32{clip-path:url(#XMLID_00000003084612082812855140000009528930926115943569_);fill-rule:evenodd;clip-rule:evenodd;fill:#457028;}
	
		.st33{clip-path:url(#XMLID_00000003084612082812855140000009528930926115943569_);fill-rule:evenodd;clip-rule:evenodd;fill:#1C2012;}
	
		.st34{clip-path:url(#XMLID_00000003084612082812855140000009528930926115943569_);fill-rule:evenodd;clip-rule:evenodd;fill:#4C6C3A;}
	
		.st35{clip-path:url(#XMLID_00000039098145192200505640000012207843135367561892_);fill:url(#XMLID_00000076589893640524125490000013849422734952720029_);}
	
		.st36{clip-path:url(#XMLID_00000010282035048844225230000001023424381163485620_);fill:url(#XMLID_00000179613513097813528440000012342521066071779251_);}
	
		.st37{clip-path:url(#XMLID_00000163059416656676550720000006037652278760239490_);fill:url(#XMLID_00000104672953381741397500000009745062962712615570_);}
	
		.st38{clip-path:url(#XMLID_00000030472360473176339700000011060790031500420026_);fill:url(#XMLID_00000070827631003134380950000006339344558061715628_);}
	.st39{fill:none;stroke:#231709;stroke-width:0.23;stroke-miterlimit:10;}
	.st40{fill:#231700;stroke:#231709;stroke-width:0.3;stroke-miterlimit:10;}
	
		.st41{fill:url(#XMLID_00000178169001441547677480000002857751132702403479_);stroke:#231709;stroke-width:0.3;stroke-miterlimit:10;}
	
		.st42{fill:url(#SVGID_00000026879723433267141350000006806667788522478769_);stroke:#231709;stroke-width:0.3;stroke-miterlimit:10;}
	
		.st43{fill:url(#XMLID_00000086675425423457018230000001464465755226975131_);stroke:#231709;stroke-width:0.3;stroke-miterlimit:10;}
	
		.st44{fill:url(#XMLID_00000114045623879091387210000016619126949150408600_);stroke:#231709;stroke-width:0.3;stroke-miterlimit:10;}
	
		.st45{fill:url(#XMLID_00000070083519101449145160000004133221589931538049_);stroke:#231709;stroke-width:0.3;stroke-miterlimit:10;}
	
		.st46{fill:url(#SVGID_00000102520267372993830240000018168735642108714144_);stroke:#231709;stroke-width:0.3;stroke-miterlimit:10;}
	
		.st47{fill:url(#XMLID_00000138573566314174807940000014585002128796977539_);stroke:#231709;stroke-width:0.3;stroke-miterlimit:10;}
	
		.st48{fill:url(#SVGID_00000152943014130269238990000017229037762760223163_);stroke:#231709;stroke-width:0.3;stroke-miterlimit:10;}
	.st49{fill:#FFD700;stroke:#00FF00;stroke-miterlimit:10;}
	
		.st50{fill:url(#XMLID_00000183963772917299982850000011665053762939840644_);stroke:#231709;stroke-width:0.3;stroke-miterlimit:10;}
	
		.st51{fill:url(#XMLID_00000111174881033888884220000005031745352714315686_);stroke:#231709;stroke-width:0.3;stroke-miterlimit:10;}
	
		.st52{fill:url(#XMLID_00000120541419968443822240000000219786510876855988_);stroke:#231709;stroke-width:0.3;stroke-miterlimit:10;}
	.st53{clip-path:url(#XMLID_00000041992721291340879570000017564549768321447051_);}
	.st54{clip-path:url(#XMLID_00000178891235840125625440000007776507264591146119_);}
	.st55{clip-path:url(#XMLID_00000101085699332883101540000000523381052313158076_);}
	
		.st56{clip-path:url(#XMLID_00000178891235840125625440000007776507264591146119_);fill-rule:evenodd;clip-rule:evenodd;fill:#457028;}
	
		.st57{clip-path:url(#XMLID_00000178891235840125625440000007776507264591146119_);fill-rule:evenodd;clip-rule:evenodd;fill:#1C2012;}
	
		.st58{clip-path:url(#XMLID_00000178891235840125625440000007776507264591146119_);fill-rule:evenodd;clip-rule:evenodd;fill:#4C6C3A;}
	
		.st59{clip-path:url(#XMLID_00000044886303680513425430000013384823770157418140_);fill:url(#XMLID_00000142883929226559117600000013865360026005725880_);}
	
		.st60{clip-path:url(#XMLID_00000146486127852374009680000002251393088217362049_);fill:url(#XMLID_00000131350674875701305750000011756573177157768091_);}
	
		.st61{clip-path:url(#XMLID_00000010301201614746775420000002867207305518204337_);fill:url(#XMLID_00000088812704720180261030000000361475880605364895_);}
	
		.st62{clip-path:url(#XMLID_00000057110879659281552930000011015817946489397136_);fill:url(#XMLID_00000183927056200780891010000009589305053775655094_);}
	.st63{fill:#457028;}
	.st64{opacity:0.37;fill:#FAFFFA;stroke:#231709;stroke-miterlimit:10;}
	
		.st65{fill:url(#XMLID_00000017518777830677414660000012455996967628017551_);stroke:#231709;stroke-width:0.3;stroke-miterlimit:10;}
	
		.st66{fill:url(#XMLID_00000126300168845776435530000013775685637813932971_);stroke:#231709;stroke-width:0.3;stroke-miterlimit:10;}
	.st67{opacity:0.25;fill:#FAFFFA;stroke:#231709;stroke-miterlimit:10;}
	
		.st68{fill:url(#XMLID_00000001641516516922314010000015530476206007518124_);stroke:#231709;stroke-width:0.3;stroke-miterlimit:10;}
	
		.st69{fill:url(#XMLID_00000105389303065359745490000008426002444883093393_);stroke:#231709;stroke-width:0.3;stroke-miterlimit:10;}
	
		.st70{fill:url(#XMLID_00000101783755078823977470000016920269972086472595_);stroke:#231709;stroke-width:0.3;stroke-miterlimit:10;}
	
		.st71{fill:url(#XMLID_00000034791115618534797580000010991091288960571268_);stroke:#231709;stroke-width:0.3;stroke-miterlimit:10;}
	
		.st72{fill:url(#XMLID_00000119798709459745141610000014779947860085811642_);stroke:#231709;stroke-width:0.3;stroke-miterlimit:10;}
	
		.st73{fill:url(#XMLID_00000020368677605135052450000012223653158567969968_);stroke:#231709;stroke-width:0.3;stroke-miterlimit:10;}
	.st74{fill:url(#XMLID_00000180337252175890552130000002015472293091032192_);}
	.st75{fill:url(#SVGID_00000048459492689017471250000003782777892892421823_);}
	.st76{fill:url(#SVGID_00000036241247558114820810000018205868689609200791_);}
	.st77{fill:#FFFFFF;stroke:#00FF00;stroke-miterlimit:10;}
	
		.st78{fill:url(#XMLID_00000169556324873621948510000003936185103303783346_);stroke:#231709;stroke-width:0.3;stroke-miterlimit:10;}
	
		.st79{fill:url(#XMLID_00000062889190106358604220000013453059881109288593_);stroke:#231709;stroke-width:0.3;stroke-miterlimit:10;}
	
		.st80{fill:url(#XMLID_00000062181334334270417580000006106075468975041688_);stroke:#231709;stroke-width:0.3;stroke-miterlimit:10;}
	
		.st81{fill:url(#XMLID_00000064350382286690065180000016444802448755960467_);stroke:#231709;stroke-width:0.3;stroke-miterlimit:10;}
	
		.st82{fill:url(#XMLID_00000112607222568176845320000006331880792334789816_);stroke:#231709;stroke-width:0.3;stroke-miterlimit:10;}
	
		.st83{fill:url(#XMLID_00000020389912344541856290000005102716995448195752_);stroke:#231709;stroke-width:0.3;stroke-miterlimit:10;}
	
		.st84{fill:url(#XMLID_00000049209088844136877280000016676248965690603452_);stroke:#231709;stroke-width:0.3;stroke-miterlimit:10;}
	
		.st85{fill:url(#XMLID_00000031915815646165848390000016573425747935535253_);stroke:#231709;stroke-width:0.3;stroke-miterlimit:10;}
	
		.st86{fill:url(#XMLID_00000130620290230304813000000009449293631549807772_);stroke:#231709;stroke-width:0.3;stroke-miterlimit:10;}
	
		.st87{fill:url(#XMLID_00000067935145316530151720000003171320703461322170_);stroke:#231709;stroke-width:0.3;stroke-miterlimit:10;}
	
		.st88{fill:url(#SVGID_00000096023434299244564600000006455496838734859180_);stroke:#231709;stroke-width:0.3;stroke-miterlimit:10;}
	
		.st89{fill:url(#XMLID_00000067945747506141082680000014504340861868166815_);stroke:#231709;stroke-width:0.3;stroke-miterlimit:10;}
	
		.st90{fill:url(#SVGID_00000147199356783272437710000006329104120890198694_);stroke:#231709;stroke-width:0.3;stroke-miterlimit:10;}
	
		.st91{fill:url(#XMLID_00000163039729360467419900000008675150188141908387_);stroke:#231709;stroke-width:0.3;stroke-miterlimit:10;}
	
		.st92{fill:url(#SVGID_00000130608870801674523440000015381746935889061505_);stroke:#231709;stroke-width:0.3;stroke-miterlimit:10;}
	
		.st93{fill:url(#XMLID_00000078038976909384017120000001677875891612597634_);stroke:#231709;stroke-width:0.3;stroke-miterlimit:10;}
	
		.st94{fill:url(#XMLID_00000101084978821376512060000013452246195907682209_);stroke:#231709;stroke-width:0.3;stroke-miterlimit:10;}
	
		.st95{fill:url(#XMLID_00000183211044353815246100000016900249441209975179_);stroke:#231709;stroke-width:0.3;stroke-miterlimit:10;}
	
		.st96{fill:url(#XMLID_00000032611473094017527160000009106935556681654711_);stroke:#231709;stroke-width:0.3;stroke-miterlimit:10;}
</style>
<g id="XMLID_3259_">
	<path id="XMLID_3260_" class="st40" d="M23.01,41.89c0,0.48,0.01,0.95,0,1.42c-0.01,0.8-0.36,1.15-1.16,1.15
		c-3.34,0-6.67,0-10.01,0c-0.76,0-1.13-0.36-1.14-1.12c-0.01-0.47,0-0.93,0-1.32c-0.77-0.38-1.54-0.65-2.19-1.1
		c-1.7-1.15-2.58-2.81-2.59-4.87c-0.02-4.5-0.01-11.77-0.01-16.27c0-3.11,2.14-5.55,5.22-5.98c0.14-0.02,0.28-0.05,0.48-0.08
		c0-1.05,0.01-2.09-0.01-3.13c0-0.08-0.17-0.2-0.29-0.23c-0.67-0.23-1.03-0.77-0.95-1.44c0.08-0.64,0.6-1.09,1.32-1.09
		c3.43-0.01,6.87-0.01,10.3,0c0.72,0,1.25,0.44,1.34,1.07c0.1,0.69-0.26,1.21-0.97,1.47c-0.11,0.04-0.27,0.2-0.27,0.3
		c-0.02,1.01-0.01,2.03-0.01,3.05c0.4,0.07,0.76,0.12,1.12,0.2c2.68,0.63,4.57,2.99,4.58,5.74c0.01,4.48,0.01,11.74,0,16.22
		c0,2.9-1.69,5.12-4.48,5.93C23.23,41.83,23.15,41.85,23.01,41.89z M6.91,20.51c0,3.95,0,10.61,0,14.51c6.65,0,13.26,0,19.87,0
		c0-3.94,0-10.6,0-14.51C20.14,20.51,13.54,20.51,6.91,20.51z M6.86,36.04c0.03,0.3,0.03,0.55,0.07,0.78
		c0.45,2.51,2.43,4.18,5.03,4.2c3.29,0.02,6.57,0.01,9.86,0c1.4,0,2.62-0.51,3.59-1.52c0.92-0.95,1.4-2.09,1.4-3.46
		C20.15,36.04,13.54,36.04,6.86,36.04z M26.8,19.49c0-0.15,0.01-0.28,0-0.4c-0.28-2.42-2.39-4.36-4.83-4.38
		c-3.4-0.03-6.8-0.02-10.2,0c-1.39,0.01-2.57,0.55-3.52,1.56c-0.85,0.89-1.32,1.95-1.36,3.23C13.55,19.49,20.16,19.49,26.8,19.49z
		 M16.34,12.18c-0.27,0-0.48,0-0.69,0c-0.31-0.01-0.55-0.13-0.55-0.47c0-0.34,0.21-0.49,0.53-0.49c0.79,0,1.58,0,2.37,0
		c0.33,0,0.57,0.18,0.51,0.49c-0.04,0.18-0.29,0.37-0.5,0.46c-0.19,0.08-0.43,0.02-0.65,0.02c0,0.56,0,1.05,0,1.52
		c1.27,0,2.5,0,3.72,0c0-1.12,0-2.19,0-3.28c-2.84,0-5.65,0-8.47,0c0,1.12,0,2.2,0,3.29c1.26,0,2.49,0,3.73,0
		C16.34,13.19,16.34,12.71,16.34,12.18z M16.79,9.43c1.63,0,3.25,0,4.88,0c0.14,0,0.31,0.03,0.43-0.03
		c0.12-0.06,0.24-0.21,0.25-0.34c0.01-0.08-0.15-0.22-0.27-0.27c-0.11-0.05-0.25-0.02-0.38-0.02c-3.25,0-6.5,0-9.75,0
		c-0.13,0-0.27-0.02-0.38,0.03c-0.1,0.04-0.23,0.17-0.23,0.25c0,0.12,0.1,0.28,0.2,0.33c0.13,0.06,0.31,0.05,0.47,0.05
		C13.61,9.43,15.2,9.43,16.79,9.43z M16.35,42.02c-1.59,0-3.12,0-4.66,0c0,0.51,0,0.98,0,1.43c1.58,0,3.12,0,4.66,0
		C16.35,42.96,16.35,42.51,16.35,42.02z M22.02,42.02c-1.59,0-3.13,0-4.66,0c0,0.5,0,0.96,0,1.47c1.47,0,2.92,0,4.37,0
		c0.09,0,0.18-0.02,0.3-0.03C22.02,42.97,22.02,42.51,22.02,42.02z"/>
	<path id="XMLID_3695_" class="st21" d="M16.86,32.64c-2.52,0.01-4.18-2.68-2.98-4.91c0.69-1.27,1.5-2.47,2.28-3.69
		c0.37-0.57,1.02-0.56,1.39,0.03c0.75,1.17,1.52,2.32,2.19,3.53C21.03,29.88,19.44,32.63,16.86,32.64z M16.85,25.22
		c-0.67,1.08-1.32,2.05-1.88,3.06c-0.52,0.94-0.21,2.11,0.62,2.75c0.73,0.56,1.84,0.55,2.56-0.03c0.82-0.65,1.09-1.82,0.56-2.76
		C18.15,27.24,17.52,26.29,16.85,25.22z"/>
	<path id="XMLID_3698_" class="st5" d="M16.85,25.22c0.67,1.07,1.3,2.02,1.86,3.01c0.53,0.94,0.26,2.11-0.56,2.76
		c-0.72,0.58-1.83,0.59-2.56,0.03c-0.83-0.64-1.14-1.81-0.62-2.75C15.53,27.26,16.18,26.3,16.85,25.22z"/>
</g>
</svg>
