<?xml version="1.0" standalone="no"?>
<!DOCTYPE svg PUBLIC "-//W3C//DTD SVG 20010904//EN"
 "http://www.w3.org/TR/2001/REC-SVG-20010904/DTD/svg10.dtd">
<svg version="1.0" xmlns="http://www.w3.org/2000/svg"
 width="512.000000pt" height="512.000000pt" viewBox="0 0 512.000000 512.000000"
 preserveAspectRatio="xMidYMid meet">

<g transform="translate(0.000000,512.000000) scale(0.100000,-0.100000)"
fill="#000000" stroke="none">
<path d="M1586 5099 l-26 -20 -2 -537 -3 -537 -95 -6 c-112 -7 -189 -33 -258
-88 -103 -82 -162 -180 -181 -301 -15 -90 -15 -2820 0 -2910 27 -171 155 -320
317 -370 l57 -18 5 -137 c5 -129 6 -138 29 -156 23 -18 56 -19 1131 -19 1075
0 1108 1 1131 19 23 18 24 27 29 156 l5 137 57 18 c162 50 290 199 317 370 15
90 15 2820 0 2910 -14 90 -58 180 -121 246 -91 96 -173 133 -318 143 l-95 6
-3 537 -2 537 -26 20 c-26 20 -38 21 -428 21 -391 0 -403 -1 -424 -20 -14 -14
-22 -33 -22 -55 0 -22 8 -41 22 -55 21 -19 33 -20 375 -20 l353 0 0 -85 0 -85
-75 0 c-87 0 -135 -16 -183 -63 -57 -54 -74 -99 -79 -211 -7 -128 8 -202 51
-259 49 -64 104 -90 203 -95 l83 -5 0 -83 0 -84 -302 2 -303 3 -3 323 -2 322
23 0 c38 0 87 20 97 40 16 30 12 68 -10 90 -19 19 -33 20 -350 20 -317 0 -331
-1 -350 -20 -22 -22 -26 -60 -10 -90 10 -20 59 -40 97 -40 l23 0 -2 -322 -3
-323 -302 -3 -303 -2 0 84 0 83 83 5 c94 5 148 28 192 80 52 61 59 92 60 238
0 151 -10 183 -77 247 -48 47 -96 63 -183 63 l-75 0 0 85 0 85 353 0 c342 0
354 1 375 20 30 28 30 82 0 110 -21 19 -33 20 -424 20 -390 0 -402 -1 -428
-21z m284 -474 c19 -20 24 -39 28 -104 6 -100 -3 -147 -33 -177 -21 -20 -34
-24 -90 -24 l-65 0 0 165 0 165 68 0 c60 0 71 -3 92 -25z m780 -300 l0 -325
-90 0 -90 0 0 325 0 325 90 0 90 0 0 -325z m760 160 l0 -165 -65 0 c-56 0 -69
4 -90 24 -30 30 -39 77 -33 177 4 65 9 84 28 104 21 22 32 25 92 25 l68 0 0
-165z m365 -664 c39 -18 77 -46 104 -77 l43 -49 -664 -5 c-661 -5 -663 -5
-704 -27 -166 -89 -176 -311 -20 -408 l49 -30 269 -3 268 -3 25 25 c32 32 32
70 0 101 l-24 25 -250 0 -249 0 -26 31 c-32 38 -33 70 -2 106 l24 28 669 0
668 0 3 -82 3 -83 -276 0 -276 0 -24 -25 c-31 -30 -32 -71 -3 -102 21 -23 22
-23 300 -23 l279 0 -3 -82 -3 -83 -1398 -3 -1398 -2 3 277 c4 235 7 285 22
325 26 68 90 136 161 169 l60 29 1155 0 1155 0 60 -29z m185 -1666 l0 -745
-624 0 c-615 0 -624 0 -650 -21 -33 -26 -36 -79 -6 -109 20 -20 33 -20 651
-20 l631 0 -4 -277 c-3 -275 -3 -279 -29 -333 -34 -74 -76 -120 -141 -156
l-53 -29 -1175 0 -1175 0 -53 29 c-51 29 -122 96 -122 116 0 5 103 10 256 12
255 3 256 3 275 27 23 28 24 68 3 96 -14 19 -30 20 -297 25 l-282 5 -3 83 -3
82 669 0 c657 0 669 0 690 -20 30 -28 38 -68 21 -99 -27 -47 -47 -51 -306 -51
l-242 0 -20 -26 c-24 -30 -26 -43 -10 -78 20 -44 49 -48 315 -44 233 3 252 4
289 25 101 54 154 167 126 269 -15 58 -63 120 -113 146 l-43 23 -685 5 -685 5
-3 83 -3 82 631 0 c617 0 630 0 650 20 30 30 27 83 -6 109 -26 21 -35 21 -650
21 l-624 0 0 745 0 745 1400 0 1400 0 0 -745z m-390 -1925 l0 -80 -1010 0
-1010 0 0 80 0 80 1010 0 1010 0 0 -80z"/>
<path d="M1623 2666 c-108 -35 -205 -124 -244 -224 -21 -51 -23 -78 -27 -258
-5 -276 17 -355 124 -454 235 -216 615 -55 627 266 2 61 0 67 -26 90 -25 22
-37 24 -121 24 -79 0 -97 -3 -120 -21 -19 -15 -26 -30 -26 -54 0 -50 31 -75
93 -75 45 0 48 -1 42 -22 -14 -47 -64 -103 -115 -130 -64 -34 -126 -36 -190
-7 -56 25 -86 53 -113 104 -20 36 -22 58 -25 226 -2 112 1 202 7 226 27 98
103 162 202 170 56 4 71 1 119 -24 70 -36 107 -87 121 -171 12 -69 37 -102 75
-102 63 0 85 40 72 132 -16 120 -102 233 -216 286 -69 31 -192 40 -259 18z"/>
<path d="M2429 2670 c-9 -5 -21 -22 -27 -37 -6 -16 -59 -232 -117 -481 -98
-424 -104 -455 -90 -481 24 -47 69 -54 109 -18 21 18 31 48 58 165 l32 142
166 0 166 0 32 -142 c27 -117 37 -147 58 -165 40 -37 85 -29 109 18 14 26 8
56 -91 481 -58 249 -110 466 -116 481 -6 15 -19 32 -29 37 -23 13 -239 12
-260 0z m207 -330 c24 -102 46 -195 49 -207 5 -23 5 -23 -125 -23 -120 0 -131
1 -126 18 3 9 23 98 46 197 23 99 43 186 46 193 2 8 16 12 36 10 l31 -3 43
-185z"/>
<path d="M3216 2664 c-120 -44 -198 -156 -198 -283 0 -116 62 -215 166 -269
46 -23 66 -26 193 -31 153 -6 171 -12 217 -75 29 -38 29 -114 0 -153 -46 -62
-76 -73 -198 -73 -86 0 -119 4 -146 18 -43 21 -76 70 -85 125 -10 56 -30 77
-75 77 -52 0 -73 -26 -71 -90 1 -73 35 -142 96 -199 77 -69 131 -84 298 -79
149 3 199 20 267 88 58 58 84 122 84 210 0 89 -26 152 -87 213 -65 65 -112 80
-272 86 -111 5 -147 10 -168 24 -76 50 -93 161 -34 225 41 44 69 52 188 52 96
0 117 -3 150 -22 42 -23 79 -85 79 -131 0 -65 89 -92 130 -39 18 23 21 35 15
77 -14 109 -89 206 -189 244 -48 18 -77 21 -189 20 -88 0 -145 -5 -171 -15z"/>
</g>
</svg>
