<?xml version="1.0" encoding="utf-8"?>
<!-- Generator: Adobe Illustrator 25.4.1, SVG Export Plug-In . SVG Version: 6.00 Build 0)  -->
<svg version="1.1" id="Layer_1" xmlns="http://www.w3.org/2000/svg" xmlns:xlink="http://www.w3.org/1999/xlink" x="0px" y="0px"
	 viewBox="0 0 68 68" style="enable-background:new 0 0 68 68;" xml:space="preserve">
<style type="text/css">
	.st0{fill:#00FF00;}
	.st1{fill:#C7C7C9;}
	.st2{font-family:'FranklinGothic-Medium';}
	.st3{font-size:8px;}
	.st4{fill:#7C7C7C;}
	.st5{fill:#737373;}
	.st6{fill:#00FF00;stroke:#00FF00;stroke-width:0.45;stroke-miterlimit:10;}
	.st7{fill:#FFD700;}
</style>
<g>
	<g id="XMLID_00000155111463163807992470000002703510171643410331_">
		<path id="XMLID_00000143578978472065273140000004745605068236171660_" class="st0" d="M44.28,33.5c0,1.9,0,3.8,0,5.7
			c0,0.91-0.27,1.21-1.18,1.34c-0.53,0.07-1.05,0.01-1.57,0c-1.3-0.01-2.59,0-3.89,0c-0.62,0-0.79-0.17-0.79-0.77
			c0-1.83-0.01-3.66,0.01-5.5c0-0.27-0.05-0.36-0.35-0.36c-1.65,0.01-3.29,0-4.94,0c-0.4,0-0.4,0-0.4,0.38c0,1.8,0,3.61,0,5.41
			c0,0.68-0.16,0.84-0.85,0.84c-1.29,0-2.57-0.01-3.86,0c-0.54,0-1.09,0.08-1.63-0.01c-0.23-0.04-0.46-0.1-0.66-0.22
			c-0.25-0.14-0.38-0.36-0.41-0.64c-0.02-0.23-0.04-0.47-0.04-0.7c0-3.72,0-7.44-0.01-11.17c0-0.31,0.08-0.54,0.32-0.76
			c3.27-2.98,6.53-5.96,9.79-8.95c0.14-0.13,0.22-0.12,0.35,0.01c2.76,2.53,5.52,5.05,8.28,7.57c0.55,0.5,1.09,1,1.65,1.49
			c0.13,0.11,0.18,0.23,0.18,0.4C44.28,29.55,44.28,31.53,44.28,33.5z"/>
		<path id="XMLID_00000152230737448569158050000016845733730991176357_" class="st0" d="M27.67,16.63c0.62-0.57,1.19-1.08,1.75-1.6
			c1.11-1.02,2.22-2.05,3.34-3.06c0.8-0.73,1.57-0.75,2.41-0.05c0.63,0.53,1.23,1.11,1.84,1.67c3.31,3.02,6.61,6.05,9.92,9.07
			c0.51,0.47,1.04,0.92,1.52,1.41c0.66,0.68,0.71,1.72,0.11,2.44c-0.6,0.73-1.59,0.88-2.39,0.37c-0.47-0.3-0.82-0.72-1.22-1.08
			c-1.44-1.31-2.87-2.63-4.31-3.94c-2.14-1.96-4.29-3.91-6.42-5.88c-0.19-0.18-0.3-0.09-0.43,0.04c-0.77,0.71-1.54,1.43-2.32,2.14
			c-1.72,1.57-3.45,3.13-5.16,4.7c-1.34,1.23-2.68,2.46-4.02,3.7c-0.48,0.45-1.03,0.7-1.7,0.59c-0.75-0.12-1.21-0.58-1.45-1.29
			c-0.23-0.7-0.07-1.33,0.46-1.82c1.03-0.97,2.08-1.91,3.12-2.86c0.57-0.53,1.15-1.06,1.72-1.58c0.1-0.09,0.11-0.19,0.11-0.31
			c-0.01-2.06-0.01-4.11-0.01-6.17c0-0.26-0.01-0.53,0.06-0.78c0.09-0.32,0.26-0.46,0.59-0.46c0.61,0,1.23-0.01,1.84,0
			c0.36,0,0.56,0.17,0.62,0.53c0.03,0.14,0.04,0.29,0.04,0.44C27.67,14.08,27.67,15.31,27.67,16.63z"/>
	</g>
	
		<text id="XMLID_00000121258986841427314150000011816376774876072329_" transform="matrix(1 0 0 1 23.0769 51.4724)" class="st1 st2 st3">HOME</text>
</g>
</svg>
