<?xml version="1.0" encoding="utf-8"?>
<!-- Generator: Adobe Illustrator 25.4.1, SVG Export Plug-In . SVG Version: 6.00 Build 0)  -->
<svg version="1.1" id="Layer_1" xmlns="http://www.w3.org/2000/svg" xmlns:xlink="http://www.w3.org/1999/xlink" x="0px" y="0px"
	 viewBox="0 0 84.79 68" style="enable-background:new 0 0 84.79 68;" xml:space="preserve">
<style type="text/css">
	.st0{fill:#00FF00;}
	.st1{fill:#7C7C7C;}
	.st2{fill:#737373;}
	.st3{fill:#C7C7C9;}
	.st4{font-family:'FranklinGothic-Medium';}
	.st5{font-size:8px;}
	.st6{fill:#00FF00;stroke:#00FF00;stroke-width:0.45;stroke-miterlimit:10;}
	.st7{fill:#FFD700;}
</style>
<g>
	<path id="XMLID_00000037677026601063596020000011223245722052123833_" class="st1" d="M72.65,14.4c0.04,0.04,0.08,0.07,0.12,0.11
		c-0.14,0.03-0.25-0.04-0.39-0.08C72.47,14.36,72.56,14.38,72.65,14.4z"/>
	<path id="XMLID_00000133489236138889955710000018013939594535836330_" class="st2" d="M66.1,14.51c0.04-0.04,0.08-0.07,0.12-0.11
		c0.08-0.03,0.17-0.02,0.25,0.02C66.34,14.45,66.23,14.55,66.1,14.51z"/>
	<g id="XMLID_445_">
		<g id="XMLID_446_">
			<path id="XMLID_447_" class="st3" d="M43.9,11.56c-1.91,0.43-3.63,1.26-5.15,2.48c-0.13,0.1-0.25,0.14-0.41,0.14
				c-4.26,0-8.53,0-12.79,0c-0.51,0-0.57,0.07-0.57,0.59c0,5.76,0,11.52,0,17.28c0,0.45,0.07,0.52,0.53,0.52c3.95,0,7.9,0,11.86,0
				c0.14,0,0.25,0.02,0.36,0.13c1.03,1.04,2.21,1.88,3.54,2.5c0.03,0.01,0.05,0.03,0.1,0.06c-0.08,0.06-0.16,0.04-0.23,0.04
				c-5.76,0-11.52,0-17.28,0c-1.01,0-1.59-0.59-1.59-1.6c0-6.87,0-13.74,0-20.61c0-1.02,0.59-1.61,1.61-1.61c6.62,0,13.23,0,19.85,0
				c0.09,0,0.18,0,0.28,0C44.03,11.58,43.93,11.53,43.9,11.56z"/>
			<path id="XMLID_448_" class="st3" d="M39.59,40.43c-2.49,0-4.98,0-7.47,0c-0.2,0-0.25-0.05-0.24-0.25c0.02-0.41,0.02-0.82,0-1.24
				c-0.01-0.22,0.04-0.3,0.28-0.29c0.77,0.02,1.55,0,2.32,0.01c0.16,0,0.21-0.05,0.25-0.2c0.16-0.72,0.38-1.43,0.79-2.06
				c0.11-0.17,0.23-0.25,0.45-0.25c2.44,0.01,4.88,0.01,7.31,0c0.19,0,0.31,0.06,0.41,0.21c0.42,0.62,0.64,1.33,0.8,2.05
				c0.04,0.18,0.11,0.23,0.3,0.23c0.78-0.01,1.56,0,2.35-0.01c0.18,0,0.22,0.05,0.22,0.23c-0.01,0.43-0.02,0.86,0,1.29
				c0.01,0.21-0.04,0.26-0.26,0.26C44.6,40.42,42.1,40.43,39.59,40.43z"/>
			<path id="XMLID_449_" class="st3" d="M30.39,28.26c0,0.59,0,1.18,0,1.76c0,0.15-0.03,0.2-0.19,0.2c-1.19-0.01-2.39-0.01-3.58,0
				c-0.16,0-0.19-0.06-0.19-0.21c0-1.18,0-2.37,0-3.55c0-0.15,0.04-0.2,0.2-0.2c1.19,0.01,2.39,0.01,3.58,0
				c0.17,0,0.19,0.07,0.19,0.21C30.39,27.06,30.39,27.66,30.39,28.26z"/>
			<path id="XMLID_450_" class="st3" d="M30.39,23.4c0,0.59-0.01,1.18,0,1.77c0,0.17-0.05,0.21-0.21,0.21
				c-1.18-0.01-2.35-0.01-3.53,0c-0.18,0-0.22-0.06-0.22-0.23c0.01-1.18,0.01-2.35,0-3.53c0-0.16,0.03-0.22,0.2-0.21
				c1.19,0.01,2.37,0.01,3.56,0c0.16,0,0.21,0.04,0.21,0.21C30.38,22.21,30.39,22.8,30.39,23.4z"/>
			<path id="XMLID_451_" class="st3" d="M26.43,18.56c0-0.6,0.01-1.21,0-1.81c0-0.16,0.04-0.2,0.2-0.2c1.19,0.01,2.38,0.01,3.58,0
				c0.14,0,0.19,0.03,0.19,0.18c-0.01,1.2-0.01,2.4,0,3.6c0,0.15-0.05,0.18-0.19,0.18c-1.2,0-2.4-0.01-3.6,0
				c-0.15,0-0.18-0.06-0.18-0.19C26.44,19.73,26.43,19.15,26.43,18.56z"/>
			<path id="XMLID_452_" class="st3" d="M33.36,16.55c0.6,0,1.19,0,1.79,0c0.14,0,0.19,0.04,0.18,0.18c-0.01,0.51,0,1.02,0,1.54
				c0,0.09-0.02,0.16-0.06,0.24c-0.28,0.59-0.52,1.2-0.69,1.83c-0.04,0.13-0.09,0.17-0.22,0.17c-0.94-0.01-1.88-0.01-2.82,0
				c-0.14,0-0.19-0.04-0.19-0.18c0.01-1.19,0.01-2.39,0-3.58c0-0.18,0.07-0.21,0.22-0.2C32.17,16.55,32.77,16.55,33.36,16.55z"/>
			<path id="XMLID_453_" class="st3" d="M49.31,11.48c2.06,0,4.12,0,6.18,0c0.87,0,1.49,0.63,1.49,1.5c0,1.19,0,2.38,0,3.66
				c-1.94-2.65-4.44-4.34-7.58-5.06C49.39,11.53,49.28,11.58,49.31,11.48z"/>
			<path id="XMLID_454_" class="st3" d="M33.34,30.22c-0.59,0-1.18,0-1.76,0c-0.16,0-0.22-0.03-0.22-0.21
				c0.01-1.18,0.01-2.37,0-3.55c0-0.18,0.06-0.21,0.22-0.21c0.85,0.01,1.7,0.01,2.54,0c0.16,0,0.22,0.05,0.25,0.2
				c0.2,0.94,0.51,1.84,0.91,2.71c0.14,0.31,0.04,0.65,0.06,0.97c0,0.12-0.11,0.07-0.18,0.07C34.55,30.22,33.94,30.22,33.34,30.22z"
				/>
			<path id="XMLID_455_" class="st3" d="M34.32,21.43c-0.16,0.88-0.25,1.76-0.22,2.66c0.01,0.36,0.04,0.72,0.07,1.08
				c0.01,0.14,0,0.21-0.17,0.21c-0.81-0.01-1.63-0.01-2.44,0c-0.14,0-0.19-0.04-0.19-0.19c0-1.21,0-2.42,0-3.63
				c0-0.12,0.04-0.16,0.16-0.16c0.91,0,1.81,0,2.72,0.01C34.26,21.41,34.28,21.42,34.32,21.43z"/>
			<path id="XMLID_456_" class="st0" d="M62,34.07c-1.61-1.57-3.19-3.18-4.79-4.77c-0.14-0.14-0.16-0.24-0.08-0.43
				c1.08-2.28,1.4-4.66,0.96-7.15c-1.12-6.24-7.19-10.46-13.43-9.34c-5.62,1.01-9.63,5.78-9.63,11.47c0,2.33,0.7,4.6,1.98,6.48
				c3.27,4.79,9.47,6.47,14.69,3.96c0.19-0.09,0.29-0.06,0.43,0.08c1.62,1.63,3.25,3.24,4.87,4.87c0.35,0.35,0.75,0.49,1.23,0.42
				c0.24-0.03,0.48-0.1,0.7-0.19c0.93-0.38,1.68-1.01,2.34-1.75c0.51-0.57,0.94-1.19,1.16-1.93C62.63,35.15,62.53,34.58,62,34.07z
				 M46.65,32.05c-4.54,0-8.21-3.68-8.21-8.25c0-4.5,3.7-8.18,8.23-8.18c4.52,0,8.21,3.7,8.2,8.23
				C54.86,28.37,51.17,32.05,46.65,32.05z"/>
			<path id="XMLID_459_" class="st3" d="M51.23,20.76c-0.67,0.41-1.31,0.81-1.95,1.21c-0.8,0.49-1.6,0.99-2.4,1.48
				c-0.1,0.06-0.18,0.12-0.32,0.04c-1.43-0.91-2.87-1.8-4.31-2.7c0.02-0.11,0.11-0.13,0.18-0.17c1.35-0.82,2.7-1.63,4.05-2.45
				c0.12-0.07,0.21-0.12,0.36-0.03c1.42,0.86,2.86,1.7,4.28,2.55C51.16,20.7,51.18,20.72,51.23,20.76z"/>
			<path id="XMLID_460_" class="st3" d="M47.13,29.32c0-0.95,0-1.87,0-2.78c0-0.68,0-1.36,0-2.04c0-0.12,0.01-0.22,0.13-0.29
				c1.45-0.91,2.9-1.82,4.35-2.74c0.02-0.01,0.05-0.02,0.08-0.03c0.05,0.07,0.02,0.15,0.03,0.21c0,1.53,0,3.06,0,4.59
				c0,0.14-0.03,0.23-0.16,0.31c-1.44,0.9-2.87,1.81-4.31,2.71C47.23,29.27,47.2,29.29,47.13,29.32z"/>
			<path id="XMLID_461_" class="st3" d="M41.7,21.45c0.82,0.51,1.61,1,2.4,1.49c0.66,0.41,1.32,0.83,1.99,1.24
				c0.11,0.07,0.18,0.12,0.18,0.27c-0.01,1.59,0,3.18,0,4.76c0,0.02-0.01,0.05-0.02,0.1c-0.24-0.14-0.46-0.28-0.69-0.42
				c-1.23-0.77-2.46-1.54-3.7-2.3c-0.1-0.06-0.18-0.12-0.18-0.27c0.01-1.59,0-3.18,0.01-4.76C41.68,21.54,41.69,21.52,41.7,21.45z"
				/>
		</g>
		<text id="XMLID_462_" transform="matrix(1 0 0 1 1.6172 51.4724)" class="st3 st4 st5">INVENTORY MANAGER</text>
	</g>
</g>
</svg>
