<?xml version="1.0" encoding="utf-8"?>
<!-- Generator: Adobe Illustrator 25.4.1, SVG Export Plug-In . SVG Version: 6.00 Build 0)  -->
<svg version="1.1" id="Layer_1" xmlns="http://www.w3.org/2000/svg" xmlns:xlink="http://www.w3.org/1999/xlink" x="0px" y="0px"
	 viewBox="0 0 48.37 65.49" style="enable-background:new 0 0 48.37 65.49;" xml:space="preserve">
<style type="text/css">
	.st0{fill:#231709;}
	.st1{opacity:0.17;fill:url(#XMLID_00000119079332805248614780000012858541600206000819_);}
	.st2{fill:url(#XMLID_00000080206739188006046820000010944116431661902492_);}
	.st3{fill:url(#XMLID_00000106146772115824860260000016711865046395963048_);}
	.st4{fill:url(#XMLID_00000171695029178080409980000013584134102775348413_);}
	.st5{fill:#FFD700;}
	.st6{fill:#7C7C7C;}
	.st7{fill:#737373;}
	.st8{fill:#00FF00;}
	.st9{fill:#C7C7C9;}
	.st10{clip-path:url(#XMLID_00000125593776708235917860000017776294132426826686_);}
	.st11{clip-path:url(#XMLID_00000163061989050740291540000001837012549496686744_);}
	.st12{clip-path:url(#XMLID_00000011008623823504859920000008853901058192923541_);}
	
		.st13{clip-path:url(#XMLID_00000163061989050740291540000001837012549496686744_);fill-rule:evenodd;clip-rule:evenodd;fill:#457028;}
	
		.st14{clip-path:url(#XMLID_00000163061989050740291540000001837012549496686744_);fill-rule:evenodd;clip-rule:evenodd;fill:#1C2012;}
	
		.st15{clip-path:url(#XMLID_00000163061989050740291540000001837012549496686744_);fill-rule:evenodd;clip-rule:evenodd;fill:#4C6C3A;}
	
		.st16{clip-path:url(#XMLID_00000165236613275732641220000014349136661065100937_);fill:url(#XMLID_00000168806571400024499950000006868310634984179124_);}
	
		.st17{clip-path:url(#XMLID_00000111161237605482622810000017958995040030133646_);fill:url(#XMLID_00000158736122382840837960000007291963909907901354_);}
	
		.st18{clip-path:url(#XMLID_00000176752179548844634680000017297535109505848756_);fill:url(#XMLID_00000041988042348162704870000015157506754028937640_);}
	
		.st19{clip-path:url(#XMLID_00000090974573457152978560000004216617562634417307_);fill:url(#XMLID_00000003106576069596214030000016219220565975731861_);}
	.st20{fill:none;stroke:#231709;stroke-width:0.1;stroke-miterlimit:10;}
	.st21{fill:#00FF00;stroke:#00FF00;stroke-width:0.45;stroke-miterlimit:10;}
	.st22{opacity:0.12;}
	.st23{opacity:0.56;fill:#231709;}
	.st24{fill:#00FF00;stroke:#231709;stroke-width:2;stroke-miterlimit:10;}
	.st25{opacity:0.77;}
	.st26{fill:url(#XMLID_00000132782999702517564190000004628332530877155262_);}
	.st27{fill:url(#SVGID_1_);}
	.st28{fill:url(#SVGID_00000090267308857902679850000013638347491093633429_);}
	.st29{clip-path:url(#XMLID_00000005265584603696023940000001143092902036514211_);}
	.st30{clip-path:url(#XMLID_00000108268878165367754790000000770015258134860692_);}
	.st31{clip-path:url(#XMLID_00000173148779845306001150000004113757316335416713_);}
	
		.st32{clip-path:url(#XMLID_00000108268878165367754790000000770015258134860692_);fill-rule:evenodd;clip-rule:evenodd;fill:#457028;}
	
		.st33{clip-path:url(#XMLID_00000108268878165367754790000000770015258134860692_);fill-rule:evenodd;clip-rule:evenodd;fill:#1C2012;}
	
		.st34{clip-path:url(#XMLID_00000108268878165367754790000000770015258134860692_);fill-rule:evenodd;clip-rule:evenodd;fill:#4C6C3A;}
	
		.st35{clip-path:url(#XMLID_00000182504002438547755410000005557413110684644995_);fill:url(#XMLID_00000053525810703601368860000004138207495148945319_);}
	
		.st36{clip-path:url(#XMLID_00000019654243221349697580000011151133903271410851_);fill:url(#XMLID_00000152984053165592581500000011354617591186894479_);}
	
		.st37{clip-path:url(#XMLID_00000010996391923613776940000012682765106970210231_);fill:url(#XMLID_00000035499396714911043080000003290587072219824048_);}
	
		.st38{clip-path:url(#XMLID_00000091006077795964800110000000612232818403507884_);fill:url(#XMLID_00000177484261100204342360000017932121950121260169_);}
	.st39{fill:none;stroke:#231709;stroke-width:0.23;stroke-miterlimit:10;}
	.st40{fill:#231700;stroke:#231709;stroke-width:0.3;stroke-miterlimit:10;}
	
		.st41{fill:url(#XMLID_00000080184951303695383080000018159134197539387271_);stroke:#231709;stroke-width:0.3;stroke-miterlimit:10;}
	
		.st42{fill:url(#SVGID_00000003104987599062120930000004838179605473337271_);stroke:#231709;stroke-width:0.3;stroke-miterlimit:10;}
	
		.st43{fill:url(#XMLID_00000104691971812194696010000012186440625660241035_);stroke:#231709;stroke-width:0.3;stroke-miterlimit:10;}
	
		.st44{fill:url(#XMLID_00000139994705553597205810000010835478500959700627_);stroke:#231709;stroke-width:0.3;stroke-miterlimit:10;}
	
		.st45{fill:url(#XMLID_00000122712310510674492370000007033472346282869392_);stroke:#231709;stroke-width:0.3;stroke-miterlimit:10;}
	
		.st46{fill:url(#SVGID_00000139994928927315815980000012933562844550336658_);stroke:#231709;stroke-width:0.3;stroke-miterlimit:10;}
	
		.st47{fill:url(#XMLID_00000007420344598271318990000016699615442115844746_);stroke:#231709;stroke-width:0.3;stroke-miterlimit:10;}
	
		.st48{fill:url(#SVGID_00000164482925615542084100000011404399221362391229_);stroke:#231709;stroke-width:0.3;stroke-miterlimit:10;}
	.st49{fill:#FFD700;stroke:#00FF00;stroke-miterlimit:10;}
	
		.st50{fill:url(#XMLID_00000113347039556274201780000006393525444641690250_);stroke:#231709;stroke-width:0.3;stroke-miterlimit:10;}
	
		.st51{fill:url(#XMLID_00000012451793997387786520000013928354520418224266_);stroke:#231709;stroke-width:0.3;stroke-miterlimit:10;}
	
		.st52{fill:url(#XMLID_00000052093624254291759510000005430106195836561569_);stroke:#231709;stroke-width:0.3;stroke-miterlimit:10;}
	.st53{clip-path:url(#XMLID_00000007409000595447679930000013058922171564863113_);}
	.st54{clip-path:url(#XMLID_00000098178608313211525770000004703904341800099743_);}
	.st55{clip-path:url(#XMLID_00000084529872347296913520000016744928051317346999_);}
	
		.st56{clip-path:url(#XMLID_00000098178608313211525770000004703904341800099743_);fill-rule:evenodd;clip-rule:evenodd;fill:#457028;}
	
		.st57{clip-path:url(#XMLID_00000098178608313211525770000004703904341800099743_);fill-rule:evenodd;clip-rule:evenodd;fill:#1C2012;}
	
		.st58{clip-path:url(#XMLID_00000098178608313211525770000004703904341800099743_);fill-rule:evenodd;clip-rule:evenodd;fill:#4C6C3A;}
	
		.st59{clip-path:url(#XMLID_00000001642673325168009070000003135345630406297235_);fill:url(#XMLID_00000155143722607305030430000004934872210476283561_);}
	
		.st60{clip-path:url(#XMLID_00000105422787072992686870000016751538197832240297_);fill:url(#XMLID_00000081612563542031880130000010366390668342728326_);}
	
		.st61{clip-path:url(#XMLID_00000090988733318992145700000018378913929228570771_);fill:url(#XMLID_00000104677502367121860360000017262004703052620686_);}
	
		.st62{clip-path:url(#XMLID_00000172404157648631678050000007856790005280055684_);fill:url(#XMLID_00000127038814394534954800000016118546143186142894_);}
	.st63{fill:#457028;}
	.st64{opacity:0.37;fill:#FAFFFA;stroke:#231709;stroke-miterlimit:10;}
	
		.st65{fill:url(#XMLID_00000034054962791312274020000000009189410239130512_);stroke:#231709;stroke-width:0.3;stroke-miterlimit:10;}
	
		.st66{fill:url(#XMLID_00000007416342684927496390000006379437457433322415_);stroke:#231709;stroke-width:0.3;stroke-miterlimit:10;}
	.st67{opacity:0.25;fill:#FAFFFA;stroke:#231709;stroke-miterlimit:10;}
	
		.st68{fill:url(#XMLID_00000181772233015592143080000006004115560023721151_);stroke:#231709;stroke-width:0.3;stroke-miterlimit:10;}
	
		.st69{fill:url(#XMLID_00000147190764578255135350000004196271746383919027_);stroke:#231709;stroke-width:0.3;stroke-miterlimit:10;}
	
		.st70{fill:url(#XMLID_00000103964979079925038020000007868638687436482969_);stroke:#231709;stroke-width:0.3;stroke-miterlimit:10;}
	
		.st71{fill:url(#XMLID_00000170250844309188388890000016750210704420692404_);stroke:#231709;stroke-width:0.3;stroke-miterlimit:10;}
	
		.st72{fill:url(#XMLID_00000083049623940383260700000003470870045680268214_);stroke:#231709;stroke-width:0.3;stroke-miterlimit:10;}
	
		.st73{fill:url(#XMLID_00000046307234638912290500000016683306311445898130_);stroke:#231709;stroke-width:0.3;stroke-miterlimit:10;}
	.st74{fill:url(#XMLID_00000182493153580128429680000017298955633924750521_);}
	.st75{fill:url(#SVGID_00000163785012951714692700000009368300631161851037_);}
	.st76{fill:url(#SVGID_00000160891296575860251880000013729381395401460100_);}
	.st77{fill:#FFFFFF;stroke:#00FF00;stroke-miterlimit:10;}
	
		.st78{fill:url(#XMLID_00000019641612282350827350000009300655675693798019_);stroke:#231709;stroke-width:0.3;stroke-miterlimit:10;}
	
		.st79{fill:url(#XMLID_00000149342543189800671360000014186051012874505915_);stroke:#231709;stroke-width:0.3;stroke-miterlimit:10;}
	
		.st80{fill:url(#XMLID_00000000902953068916594450000007399419865465320613_);stroke:#231709;stroke-width:0.3;stroke-miterlimit:10;}
	
		.st81{fill:url(#XMLID_00000167395193985029217790000010798786544788415113_);stroke:#231709;stroke-width:0.3;stroke-miterlimit:10;}
	
		.st82{fill:url(#XMLID_00000070093848454750349230000012242391497363838902_);stroke:#231709;stroke-width:0.3;stroke-miterlimit:10;}
	
		.st83{fill:url(#XMLID_00000157286037138342166100000001347326940582065037_);stroke:#231709;stroke-width:0.3;stroke-miterlimit:10;}
	
		.st84{fill:url(#XMLID_00000165940840734567731080000004427402950968645258_);stroke:#231709;stroke-width:0.3;stroke-miterlimit:10;}
	
		.st85{fill:url(#XMLID_00000057834395772061741870000012241000914613308844_);stroke:#231709;stroke-width:0.3;stroke-miterlimit:10;}
	
		.st86{fill:url(#XMLID_00000158014850862816004960000008126701263573276861_);stroke:#231709;stroke-width:0.3;stroke-miterlimit:10;}
	
		.st87{fill:url(#XMLID_00000005959616739492152210000008289108792486200732_);stroke:#231709;stroke-width:0.3;stroke-miterlimit:10;}
	
		.st88{fill:url(#SVGID_00000092438032589991885440000000002508036851841449_);stroke:#231709;stroke-width:0.3;stroke-miterlimit:10;}
	
		.st89{fill:url(#XMLID_00000152260032986163637030000018255889909877210026_);stroke:#231709;stroke-width:0.3;stroke-miterlimit:10;}
	
		.st90{fill:url(#SVGID_00000081649941480947753190000003605591868967863718_);stroke:#231709;stroke-width:0.3;stroke-miterlimit:10;}
	
		.st91{fill:url(#XMLID_00000158713351455416790570000016658888295185244317_);stroke:#231709;stroke-width:0.3;stroke-miterlimit:10;}
	
		.st92{fill:url(#SVGID_00000151533876642342593400000001877520670380402832_);stroke:#231709;stroke-width:0.3;stroke-miterlimit:10;}
	
		.st93{fill:url(#XMLID_00000168108412167967034760000013945715810394497205_);stroke:#231709;stroke-width:0.3;stroke-miterlimit:10;}
	
		.st94{fill:url(#XMLID_00000142139704115504880170000004615655049446650553_);stroke:#231709;stroke-width:0.3;stroke-miterlimit:10;}
	
		.st95{fill:url(#XMLID_00000181060214710890221620000012556958416814749574_);stroke:#231709;stroke-width:0.3;stroke-miterlimit:10;}
	
		.st96{fill:url(#XMLID_00000107548496114579977600000000381072497081441694_);stroke:#231709;stroke-width:0.3;stroke-miterlimit:10;}
</style>
<g id="XMLID_3713_">
	<path id="XMLID_3714_" class="st40" d="M36.23,57.33c0,0.75,0.01,1.46,0,2.18c-0.02,1.23-0.56,1.77-1.78,1.77
		c-5.14,0-10.28,0-15.42,0c-1.17,0-1.73-0.56-1.75-1.73c-0.01-0.72,0-1.44,0-2.03c-1.19-0.58-2.37-1.01-3.37-1.69
		c-2.63-1.78-3.97-4.33-3.98-7.5c-0.03-6.93-0.02-18.12-0.01-25.05c0.01-4.79,3.3-8.55,8.04-9.21c0.22-0.03,0.44-0.08,0.74-0.13
		c0-1.61,0.01-3.22-0.02-4.82c0-0.13-0.27-0.3-0.44-0.36c-1.03-0.36-1.59-1.18-1.46-2.22c0.12-0.99,0.93-1.68,2.04-1.68
		c5.29-0.01,10.57-0.01,15.86,0c1.12,0,1.93,0.67,2.07,1.65c0.15,1.06-0.39,1.86-1.49,2.26c-0.18,0.06-0.41,0.3-0.41,0.46
		c-0.03,1.56-0.02,3.12-0.02,4.7c0.61,0.11,1.17,0.18,1.72,0.31c4.13,0.98,7.04,4.61,7.05,8.84c0.02,6.9,0.01,18.07,0,24.97
		c0,4.46-2.61,7.89-6.9,9.13C36.58,57.23,36.46,57.26,36.23,57.33z M11.46,24.4c0,6.08,0,16.34,0,22.33c10.24,0,20.42,0,30.6,0
		c0-6.06,0-16.33,0-22.33C31.83,24.4,21.66,24.4,11.46,24.4z M11.38,48.32c0.04,0.47,0.04,0.84,0.11,1.2
		c0.7,3.87,3.75,6.44,7.75,6.46c5.06,0.03,10.12,0.02,15.18,0c2.16-0.01,4.03-0.79,5.53-2.34c1.41-1.46,2.15-3.22,2.15-5.33
		C31.84,48.32,21.66,48.32,11.38,48.32z M42.07,22.84c0-0.24,0.02-0.43,0-0.62c-0.43-3.72-3.68-6.71-7.43-6.74
		c-5.23-0.04-10.47-0.03-15.7,0c-2.13,0.01-3.96,0.85-5.43,2.4c-1.3,1.37-2.03,3.01-2.09,4.97C21.67,22.84,31.85,22.84,42.07,22.84z
		 M25.97,11.57c-0.41,0-0.73,0-1.05,0c-0.48-0.01-0.84-0.2-0.85-0.72c-0.01-0.52,0.32-0.75,0.82-0.75c1.22-0.01,2.43,0,3.65,0
		c0.5,0,0.88,0.27,0.78,0.75c-0.06,0.28-0.45,0.57-0.76,0.7c-0.29,0.12-0.66,0.03-1,0.03c0,0.86,0,1.61,0,2.34c1.95,0,3.85,0,5.73,0
		c0-1.72,0-3.37,0-5.05c-4.38,0-8.7,0-13.05,0c0,1.72,0,3.39,0,5.06c1.95,0,3.84,0,5.74,0C25.97,13.13,25.97,12.39,25.97,11.57z
		 M26.67,7.35c2.5,0,5.01,0,7.51,0c0.22,0,0.48,0.05,0.66-0.05c0.18-0.1,0.37-0.33,0.39-0.52c0.01-0.13-0.23-0.34-0.41-0.41
		c-0.17-0.07-0.39-0.03-0.59-0.03c-5.01,0-10.01,0-15.02,0c-0.2,0-0.42-0.03-0.59,0.04c-0.15,0.07-0.35,0.26-0.35,0.39
		c0.01,0.18,0.15,0.43,0.31,0.5c0.21,0.1,0.48,0.08,0.73,0.08C21.76,7.35,24.22,7.35,26.67,7.35z M25.99,57.52
		c-2.44,0-4.81,0-7.17,0c0,0.79,0,1.51,0,2.21c2.43,0,4.8,0,7.17,0C25.99,58.97,25.99,58.28,25.99,57.52z M34.72,57.53
		c-2.45,0-4.82,0-7.18,0c0,0.78,0,1.48,0,2.27c2.27,0,4.5,0,6.72,0c0.14,0,0.28-0.03,0.46-0.05C34.72,58.99,34.72,58.28,34.72,57.53
		z"/>
	<path id="XMLID_3723_" class="st21" d="M26.78,43.09c-3.88,0.02-6.44-4.13-4.59-7.56c1.06-1.96,2.3-3.81,3.51-5.68
		c0.57-0.88,1.57-0.86,2.15,0.04c1.15,1.79,2.33,3.58,3.38,5.44C33.19,38.83,30.74,43.07,26.78,43.09z M26.76,31.65
		c-1.03,1.67-2.04,3.15-2.9,4.71c-0.8,1.44-0.33,3.25,0.96,4.23c1.13,0.86,2.83,0.84,3.95-0.05c1.26-1.01,1.68-2.81,0.86-4.25
		C28.76,34.77,27.78,33.31,26.76,31.65z"/>
	<path id="XMLID_3726_" class="st5" d="M26.76,31.65c1.03,1.65,2.01,3.11,2.87,4.64c0.82,1.45,0.4,3.24-0.86,4.25
		c-1.11,0.89-2.82,0.91-3.95,0.05c-1.28-0.98-1.75-2.79-0.96-4.23C24.72,34.8,25.72,33.32,26.76,31.65z"/>
</g>
</svg>
