<?xml version="1.0" standalone="no"?>
<!DOCTYPE svg PUBLIC "-//W3C//DTD SVG 20010904//EN"
 "http://www.w3.org/TR/2001/REC-SVG-20010904/DTD/svg10.dtd">
<svg version="1.0" xmlns="http://www.w3.org/2000/svg"
 width="550.000000pt" height="550.000000pt" viewBox="0 0 550.000000 550.000000"
 preserveAspectRatio="xMidYMid meet">

<g transform="translate(0.000000,550.000000) scale(0.100000,-0.100000)"
fill="#000000" stroke="none">
<path d="M2633 5084 c-3 -8 -1 -20 6 -27 8 -8 11 -4 9 16 -3 31 -6 34 -15 11z"/>
<path d="M2690 5090 c13 -8 13 -10 -1 -10 -9 0 -19 -7 -23 -15 -4 -11 2 -15
23 -15 15 0 30 3 34 6 9 10 -16 44 -33 44 -13 0 -13 -1 0 -10z"/>
<path d="M2848 5082 c-10 -2 -18 -7 -18 -12 0 -5 -7 -6 -17 -3 -11 4 -14 3 -9
-5 11 -18 96 -11 96 8 0 10 -30 17 -52 12z"/>
<path d="M2740 5065 c0 -8 -9 -24 -20 -35 -24 -24 -26 -58 -3 -89 10 -15 11
-21 3 -16 -8 5 -11 3 -8 -6 8 -21 -11 -51 -28 -45 -22 8 -17 -27 9 -68 24 -38
41 -45 51 -20 9 23 8 27 -9 21 -18 -8 -31 11 -17 25 13 13 36 -7 46 -40 10
-29 30 -28 50 3 19 30 20 36 3 29 -17 -6 -69 13 -79 29 -13 20 -9 59 8 78 14
16 14 18 -5 24 -27 8 -27 31 0 45 17 10 23 7 40 -14 27 -34 39 -33 39 3 0 29
-22 61 -42 61 -5 0 -8 7 -4 15 4 10 -1 15 -14 15 -11 0 -20 -7 -20 -15z m23
-42 c-7 -2 -19 -2 -25 0 -7 3 -2 5 12 5 14 0 19 -2 13 -5z"/>
<path d="M2766 4924 c-28 -27 -14 -80 17 -68 9 3 17 10 17 14 0 5 10 12 22 16
21 6 20 7 -10 23 -18 9 -30 20 -26 24 4 4 5 7 1 7 -3 0 -13 -7 -21 -16z m24
-44 c0 -5 -4 -10 -10 -10 -5 0 -10 5 -10 10 0 6 5 10 10 10 6 0 10 -4 10 -10z"/>
<path d="M2667 4730 c3 -11 7 -20 9 -20 2 0 4 9 4 20 0 11 -4 20 -9 20 -5 0
-7 -9 -4 -20z"/>
<path d="M3424 878 c-10 -29 -11 -218 -1 -211 4 2 7 -22 7 -55 0 -62 -26 -156
-41 -146 -5 3 -6 -1 -3 -9 3 -8 -15 -38 -40 -68 -49 -58 -53 -62 -106 -99 -19
-13 -37 -27 -40 -30 -3 -4 -39 -20 -80 -37 -118 -49 -215 -66 -376 -65 -119 0
-156 4 -240 26 -277 74 -413 199 -448 410 -10 62 -15 76 -22 61 -5 -11 -9 -47
-9 -80 1 -157 153 -319 369 -394 47 -17 86 -28 86 -26 0 1 20 -3 44 -10 24 -7
95 -16 157 -20 205 -12 413 42 584 153 129 83 187 159 221 292 12 48 15 85 10
141 -10 123 -53 223 -72 167z"/>
<path d="M3392 762 c-7 -12 -17 -20 -22 -17 -6 3 -7 0 -5 -8 3 -7 -6 -26 -19
-42 -27 -31 -25 -39 11 -49 20 -6 24 -1 38 49 19 65 17 104 -3 67z"/>
<path d="M2190 615 c-6 -14 -10 -32 -10 -39 0 -16 95 -78 164 -106 54 -22 57
-22 76 -5 11 10 20 23 20 30 0 6 -32 27 -72 46 -39 19 -87 45 -107 60 -60 42
-60 42 -71 14z"/>
<path d="M3030 504 c-41 -13 -208 -46 -237 -47 -16 0 -16 -2 2 -37 9 -17 23
-30 33 -30 29 0 184 29 238 45 55 16 63 25 56 62 -5 27 -24 28 -92 7z"/>
</g>
</svg>
